<svg width="49" height="51" viewBox="0 0 49 51" fill="none" xmlns="http://www.w3.org/2000/svg">
<path opacity="0.37" d="M4.25831 40.694C4.36519 40.9584 4.48332 41.2227 4.6127 41.4759C6.53654 45.2504 10.4405 47.6299 14.6031 48.0574C17.9333 48.3949 21.1734 47.3093 23.9579 45.5373C26.7368 43.771 28.9644 41.2846 32.0526 39.9908C36.4066 38.1739 41.2612 36.7394 44.6757 32.8918C48.5571 28.5209 50.0534 21.8944 48.2252 16.3029C46.4476 10.8464 40.5468 9.08011 35.9622 6.67813C27.7212 2.35231 16.3076 -0.522185 7.72909 4.55741C-2.54823 10.6383 -0.68065 24.4426 2.57637 34.0224C3.3189 36.205 3.4089 38.5564 4.25831 40.694Z" fill="#CCE9FF"/>
<path d="M9.50145 14.8292L9.48457 14.7223H9.37769C7.29635 14.7223 6.62132 14.0529 6.6157 14.0473L6.5257 13.946L6.43569 14.0473C6.43007 14.0529 5.76066 14.7223 3.6737 14.7223H3.56682L3.54994 14.8292C3.54432 14.8629 3.10555 18.2156 6.46944 19.9369L6.5257 19.965L6.58195 19.9369C9.9571 18.2156 9.50145 14.8629 9.50145 14.8292ZM8.99518 16.9049C8.57891 18.1087 7.74637 19.0425 6.52007 19.6838C5.29377 19.0425 4.46123 18.1087 4.04496 16.9049C3.7412 16.0217 3.75808 15.2511 3.78058 14.9754C5.51315 14.9529 6.28381 14.4917 6.52007 14.3004C6.75633 14.486 7.52699 14.9529 9.25956 14.9754C9.28206 15.2567 9.29894 16.0217 8.99518 16.9049ZM12.8035 10.5203L12.6853 10.2109C12.5785 10.1996 12.4772 10.1715 12.3759 10.1377L12.1341 10.3627L11.4365 9.8621L11.5715 9.55833C11.504 9.47395 11.4478 9.38395 11.4028 9.28832L11.0709 9.27707L10.9303 8.42766L11.2396 8.30953C11.2509 8.20265 11.279 8.1014 11.3128 8.00014L11.0878 7.75826L11.5884 7.0551L11.8922 7.19011C11.9766 7.1226 12.0666 7.06635 12.1622 7.02135L12.1734 6.68946L13.0229 6.54883L13.141 6.85822C13.2479 6.86947 13.3491 6.89759 13.4504 6.93134L13.6923 6.70634L14.3898 7.20698L14.2548 7.51075C14.3223 7.59512 14.3785 7.68513 14.4235 7.78076L14.7554 7.79201L14.8961 8.64142L14.5867 8.75955C14.5698 8.86643 14.5473 8.96768 14.5135 9.06894L14.7386 9.31082L14.2379 10.014L13.9341 9.87897C13.8498 9.94648 13.7598 10.0027 13.6641 10.0477L13.6529 10.3796L12.8035 10.5203ZM12.3197 9.86772L12.3872 9.89585C12.511 9.94648 12.646 9.9746 12.781 9.98585L12.8541 9.99148L12.9553 10.2559L13.4222 10.1771L13.4335 9.89585L13.501 9.86772C13.6248 9.81147 13.7373 9.73834 13.8441 9.65396L13.9004 9.60896L14.1592 9.72709L14.4348 9.34457L14.2379 9.13644L14.266 9.06894C14.3167 8.94518 14.3448 8.81018 14.356 8.67517L14.3617 8.60204L14.626 8.50079L14.5473 8.03389L14.266 8.02264L14.2379 7.95514C14.1817 7.83138 14.1085 7.71888 14.0241 7.612L13.9791 7.55575L14.0973 7.29699L13.7148 7.02135L13.5066 7.21261L13.4391 7.18448C13.3154 7.13385 13.1804 7.10573 13.0454 7.09448L12.9722 7.08885L12.871 6.82447L12.4041 6.90322L12.3928 7.18448L12.3253 7.21261C12.2016 7.26886 12.0891 7.34199 11.9822 7.42637L11.9259 7.47137L11.6672 7.35324L11.3915 7.73575L11.5884 7.94389L11.5603 8.01139C11.5097 8.13515 11.4815 8.27015 11.4703 8.40516L11.4647 8.47829L11.2003 8.57954L11.279 9.04644L11.5603 9.05769L11.5884 9.12519C11.6447 9.24895 11.7178 9.36145 11.8022 9.46833L11.8472 9.52458L11.729 9.78334L12.1116 10.059L12.3197 9.86772ZM12.9047 9.47395C12.7135 9.47395 12.5222 9.41208 12.3647 9.29957C11.9428 9.00144 11.8472 8.41641 12.1453 7.99452C12.4435 7.57262 13.0285 7.47699 13.4504 7.77513C13.6529 7.92139 13.7879 8.13515 13.8329 8.38266C13.8723 8.63017 13.816 8.87768 13.6754 9.08019C13.5291 9.2827 13.3154 9.4177 13.0679 9.4627C13.006 9.46833 12.9553 9.47395 12.9047 9.47395ZM12.9047 7.83701C12.6853 7.83701 12.4716 7.93826 12.3366 8.12952C12.2297 8.2814 12.1847 8.46704 12.2184 8.65267C12.2522 8.8383 12.3478 8.99581 12.4997 9.10269C12.6516 9.20957 12.8372 9.25457 13.0229 9.22082C13.2085 9.18707 13.366 9.09144 13.4729 8.93956C13.5798 8.78768 13.6248 8.60204 13.591 8.41641C13.5572 8.23078 13.4616 8.07327 13.3097 7.96639C13.186 7.88201 13.0454 7.83701 12.9047 7.83701ZM39.7709 19.6894L39.5065 18.9975C39.2252 18.9637 38.944 18.9019 38.6796 18.8062L38.1396 19.3125L36.677 18.2718L36.9808 17.5968C36.8064 17.3774 36.6545 17.1355 36.5307 16.8768L35.7938 16.8543L35.4957 15.0823L36.1876 14.8179C36.2214 14.5367 36.2832 14.2554 36.3789 13.991L35.8726 13.451L36.9133 11.9884L37.5883 12.2922C37.8077 12.1178 38.0496 11.9659 38.3083 11.8422L38.3308 11.1053L40.1028 10.8071L40.3672 11.499C40.6484 11.5328 40.9297 11.5947 41.1941 11.6903L41.7341 11.184L43.1967 12.2247L42.8929 12.8997C43.0673 13.1191 43.2192 13.361 43.3429 13.6198L44.0798 13.6423L44.378 15.4142L43.6861 15.6786C43.6523 15.9599 43.5904 16.2411 43.4948 16.5055L44.0011 17.0455L42.9604 18.5081L42.2854 18.2043C42.066 18.3787 41.8241 18.5306 41.5653 18.6544L41.5428 19.3913L39.7709 19.6894ZM38.6008 18.4462L38.6908 18.48C38.989 18.5925 39.304 18.6656 39.6246 18.6937L39.7259 18.705L39.9678 19.335L41.2278 19.1212L41.2503 18.4462L41.3403 18.4068C41.6328 18.2775 41.9085 18.1031 42.156 17.8949L42.2291 17.8331L42.8479 18.1087L43.5904 17.068L43.1292 16.573L43.1629 16.483C43.2754 16.1849 43.3485 15.8699 43.3767 15.5492L43.3823 15.448L44.0123 15.2061L43.7986 13.946L43.1235 13.9235L43.0842 13.8335C42.9548 13.541 42.7804 13.2654 42.5723 13.0179L42.5104 12.9447L42.786 12.326L41.7453 11.5834L41.2503 12.0447L41.1603 12.0109C40.8622 11.8984 40.5472 11.8253 40.2265 11.7972L40.1253 11.7916L39.8834 11.1615L38.6233 11.3753L38.6008 12.0503L38.5108 12.0897C38.2183 12.2191 37.9427 12.3935 37.6952 12.6016L37.622 12.6635L37.0033 12.3878L36.272 13.4285L36.7333 13.9235L36.6995 14.0135C36.587 14.3117 36.5139 14.6267 36.4857 14.9473L36.4801 15.0486L35.8501 15.2905L36.0638 16.5505L36.7389 16.573L36.7783 16.663C36.9076 16.9555 37.082 17.2312 37.2901 17.4787L37.352 17.5518L37.0764 18.1706L38.1171 18.9131L38.6008 18.4462ZM39.9284 17.2874C39.5177 17.2874 39.1071 17.1637 38.7471 16.9105C37.8302 16.258 37.6164 14.9811 38.2689 14.0642C38.9215 13.1472 40.1984 12.9335 41.1153 13.586C42.0322 14.2385 42.246 15.5155 41.5935 16.4324C41.1941 16.9893 40.564 17.2874 39.9284 17.2874ZM39.934 13.5241C39.394 13.5241 38.8596 13.7773 38.5277 14.2498C38.2577 14.6267 38.1564 15.0823 38.2296 15.538C38.3083 15.9936 38.5558 16.3874 38.9327 16.6574C39.709 17.2087 40.7891 17.0287 41.3403 16.2524C41.6047 15.8755 41.7116 15.4198 41.6385 14.9642C41.5597 14.5085 41.3122 14.1148 40.9353 13.8448C40.6259 13.6254 40.2772 13.5241 39.934 13.5241ZM12.3816 32.3462C12.1116 31.5868 11.8022 30.7318 12.1453 29.8542C12.6066 28.6729 11.6278 28.0654 10.7671 27.5197C10.0246 27.0585 9.32707 26.6197 9.56333 25.894C9.82209 25.1065 9.80521 24.499 9.5127 24.0996C9.26519 23.7621 8.82642 23.5821 8.2414 23.5877C7.7745 23.5933 7.35823 23.0195 6.91384 22.4176C6.39069 21.7089 5.85629 20.9776 5.18126 21.1407C5.06313 21.1688 4.9675 21.2363 4.91125 21.3432C4.67499 21.7876 5.04626 22.8452 5.44565 23.9702C5.87317 25.1853 6.36256 26.5578 6.04193 27.1428C5.69316 27.7841 6.32319 28.3691 6.99259 28.9936C7.70137 29.6517 8.50578 30.3999 8.29202 31.3393C8.08951 32.2168 8.04451 32.5431 8.16827 32.7343C8.2639 32.8862 8.46078 32.92 8.75892 32.9762C8.96143 33.0156 9.22019 33.0606 9.5352 33.1619C10.8909 33.5837 11.2847 34.4613 11.2903 34.4725L11.3072 34.5119L11.3465 34.5063C11.9991 34.405 12.3816 34.2194 12.5616 33.9213C12.5728 33.9044 12.5785 33.8875 12.5897 33.8706C12.781 33.4712 12.5953 32.9481 12.3816 32.3462Z" fill="#377683" fill-opacity="0.3"/>
<path d="M8.91635 30.6694C9.14136 31.0182 9.30449 31.3219 9.28761 31.7495C9.27636 32.1489 9.21448 32.5426 9.18073 32.9364C9.17511 33.0208 9.16948 33.0995 9.16386 33.1783C9.05135 33.0826 8.94447 32.987 8.83197 32.8914C8.78134 32.8858 8.73071 32.8858 8.67446 32.8858C8.83197 33.0151 8.9951 33.1558 9.15261 33.2964C9.13573 33.572 9.13011 33.8477 9.13011 34.1233C9.13011 34.2864 9.12448 34.4608 9.13573 34.624C8.98948 34.534 8.83759 34.444 8.69696 34.3539C8.25819 34.0839 7.84755 33.8308 7.53254 33.6958C7.29065 33.5945 7.02064 33.5045 6.76188 33.4202C6.08685 33.2008 5.39494 32.9758 5.16431 32.4976C5.04618 32.2501 5.05743 31.952 5.19806 31.592C5.55245 30.6638 5.22056 30.5063 4.66366 30.2363C4.25865 30.0394 3.70737 29.775 3.1561 29.1056C2.91421 28.8131 2.70045 28.5599 2.50919 28.3406C1.94105 27.6712 1.62603 27.3055 1.66541 27.0918C1.67666 27.0411 1.70478 26.9961 1.76104 26.9511C1.78916 26.9286 1.82291 26.9061 1.86792 26.8836C2.08168 26.7655 2.29544 26.8555 2.53732 26.9568C2.86359 27.0918 3.26298 27.2661 3.81988 26.9793C4.25865 26.7542 4.74804 26.5461 5.04055 26.7149C5.24306 26.8274 5.36119 27.1199 5.40057 27.598C5.41182 27.7499 5.46245 27.8568 5.54683 27.9187C5.67058 28.0087 5.86184 27.9974 6.08122 27.9524C6.23311 28.1606 6.42999 28.2618 6.66625 28.3462C6.99814 28.4643 7.24565 28.5712 7.48753 28.8412C8.00506 29.4262 8.5057 30.0225 8.91635 30.6694Z" fill="#3D8392" fill-opacity="0.3"/>
<path d="M7.12134 31.5983C6.78383 31.3732 6.49132 30.8276 6.21006 30.2988C5.82754 29.5788 5.42815 28.8363 4.8825 28.8531C4.00496 28.8756 3.22305 27.8406 3.2118 27.835L3.13867 27.8912C3.17242 27.9362 3.95996 28.9713 4.8825 28.9488C5.37189 28.9375 5.76004 29.6519 6.12568 30.3494C6.41256 30.8838 6.7107 31.4407 7.06509 31.6826C7.27885 31.8233 7.67262 32.1101 8.13951 32.4758V32.3577C7.72887 32.0145 7.36323 31.7558 7.12134 31.5983Z" fill="white"/>
<path d="M36.7668 38.5676C36.7668 38.5676 37.2731 37.3075 36.3505 35.5187C35.4224 33.7299 34.6742 34.0055 36.9074 32.6273C39.1406 31.2491 36.9187 26.9177 38.82 26.3664C40.7213 25.8152 42.3695 18.8005 43.8152 19.6949C45.2609 20.5893 43.3315 24.0263 44.3665 25.0614C45.3959 26.0964 45.5366 27.4071 43.4046 28.4703C41.2726 29.5334 44.9178 33.5949 42.0264 34.8324C39.135 36.07 39.9676 40.9246 36.7668 38.5676Z" fill="#377683" fill-opacity="0.3"/>
<path d="M37.65 39.9004C37.6444 39.8835 37.335 38.2747 38.3194 36.1934C39.3207 34.0726 39.7989 31.755 39.602 29.9887C39.4951 29.0324 40.1083 28.6612 40.6989 28.3011C41.2839 27.9467 41.8858 27.5755 41.8521 26.6361C41.824 25.7867 42.184 23.7953 42.1952 23.7109L42.3246 23.7334C42.319 23.7559 41.9533 25.7979 41.9815 26.6304C42.0152 27.6486 41.3796 28.0367 40.7664 28.408C40.1814 28.7624 39.6357 29.0999 39.7314 29.9718C39.9339 31.755 39.4501 34.1008 38.4376 36.244C37.4756 38.2859 37.7738 39.8554 37.7794 39.8723L37.65 39.9004Z" fill="white"/>
<path d="M45.3278 29.4491C46.1322 29.0666 46.9872 29.2409 46.5428 30.0453C46.0984 30.8498 45.4346 30.9116 45.5584 31.5473C45.6822 32.1829 46.0084 32.8748 44.9621 33.2799C43.9158 33.6793 43.4264 33.6118 42.7908 34.7874C42.1495 35.9631 41.9301 36.835 40.8332 36.5538C39.7363 36.2669 40.6476 34.8212 41.2157 34.2137C41.2157 34.2137 41.9864 33.5611 41.9751 32.3854C41.9639 31.2098 41.4801 30.4222 42.9989 30.501C44.5177 30.5685 44.7821 29.7078 45.3278 29.4491Z" fill="#0E538C"/>
<path d="M40.659 37.375C40.704 37.2232 41.7616 33.5836 42.6279 33.1899C43.511 32.7848 43.9892 31.7273 44.1973 31.1366C44.4673 30.366 45.6205 30.2141 45.6655 30.2085L45.6824 30.3379C45.6711 30.3379 44.563 30.4841 44.3211 31.176C44.0623 31.9242 43.5673 32.903 42.6841 33.308C41.8741 33.6792 40.7997 37.375 40.7884 37.4144L40.659 37.375ZM12.7972 34.4443C11.0646 34.0111 11.0421 33.0773 11.0196 32.1773C11.0028 31.4404 10.9859 30.7429 10.0465 30.3154C8.80329 29.7472 8.77516 28.6953 8.74704 27.7671C8.72454 27.0752 8.70766 26.4227 8.19014 26.0683C6.94696 25.2189 5.89504 23.16 5.88379 23.1375L5.97942 23.0869C5.99067 23.1094 7.02571 25.1401 8.25202 25.9783C8.81454 26.3608 8.83704 27.0415 8.85392 27.7615C8.88204 28.7009 8.91017 29.6797 10.0915 30.2141C11.0871 30.6697 11.1096 31.4348 11.1265 32.1717C11.149 33.0717 11.1715 33.9268 12.8253 34.3374L12.7972 34.4443Z" fill="white"/>
<path d="M10.4629 33.612H38.921V13.0686C38.921 12.7761 38.6847 12.5342 38.3866 12.5342H10.9973C10.7048 12.5342 10.4629 12.7704 10.4629 13.0686V33.612Z" fill="#F7F7F7"/>
<path d="M37.8623 29.7822L11.4687 29.7822L11.4687 13.5646L37.8623 13.5646V29.7822Z" fill="#0B4870" stroke="white" stroke-width="0.5" stroke-miterlimit="10"/>
<path d="M38.9207 30.5684H10.4738L7.35742 42.207H42.0314L38.9207 30.5684Z" fill="#F2F2F2"/>
<path d="M11.5494 32.6103H13.2988C13.3719 32.6103 13.4282 32.6665 13.4113 32.7284L13.2425 33.4878C13.2313 33.5328 13.1863 33.5666 13.13 33.5666H11.3525C11.2793 33.5666 11.2231 33.5103 11.24 33.4428L11.4368 32.6834C11.4481 32.644 11.4931 32.6103 11.5494 32.6103ZM14.0976 32.6103H15.4195L15.2451 33.5722H13.8951L14.0976 32.6103ZM16.0777 32.6103H17.3996L17.2646 33.5722H15.9145L16.0777 32.6103ZM18.0634 32.6103H19.3853L19.2841 33.5722H17.934L18.0634 32.6103ZM20.0435 32.6103H21.3654L21.3035 33.5722H19.9535L20.0435 32.6103ZM22.0236 32.6103H23.3455L23.323 33.5722H21.9729L22.0236 32.6103ZM37.8867 32.6103H35.901L36.1148 33.5722H38.1343L37.8867 32.6103ZM35.2429 32.6103H33.9209L34.0953 33.5722H35.4454L35.2429 32.6103ZM33.2628 32.6103H31.9409L32.0759 33.5722H33.4259L33.2628 32.6103ZM31.2771 32.6103H29.9551L30.0564 33.5722H31.4065L31.2771 32.6103ZM29.297 32.6103H27.9751L28.0369 33.5722H29.387L29.297 32.6103ZM27.3169 32.6103H25.995L26.0175 33.5722H27.3675L27.3169 32.6103ZM24.0093 32.6103H25.3312L25.3481 33.5722H24.0093V32.6103ZM10.97 34.2866H13.7263L13.5688 35.2766H10.7562L10.97 34.2866ZM38.3143 34.2866H34.9054L35.0966 35.2766H38.5786L38.3143 34.2866ZM34.2191 34.2866H32.8578L33.0097 35.2766H34.4047L34.2191 34.2866ZM32.1715 34.2866H30.8102L30.9227 35.2766H32.3178L32.1715 34.2866ZM30.1239 34.2866H28.7626L28.8414 35.2766H30.2308L30.1239 34.2866ZM28.0763 34.2866H26.715L26.7544 35.2766H28.1438L28.0763 34.2866ZM10.5537 36.0473H13.3776L13.1694 37.0317H10.2949L10.5537 36.0473ZM14.0807 36.0473H15.4926L15.3295 37.0317H13.8895L14.0807 36.0473ZM16.2014 36.0473H26.7825L26.8219 37.0317H16.0439L16.2014 36.0473ZM27.4913 36.0473H28.9032L28.982 37.0317H27.5419L27.4913 36.0473ZM29.6064 36.0473H31.0183L31.1364 37.0317H29.6964L29.6064 36.0473ZM31.7271 36.0473H33.139L33.2909 37.0317H31.8565L31.7271 36.0473ZM33.8422 36.0473H35.2541L35.4454 37.0317H34.0109L33.8422 36.0473ZM35.9573 36.0473H38.7812L39.0399 37.0317H36.1654L35.9573 36.0473ZM26.0344 34.2866H24.6787V35.2766H26.0569L26.0344 34.2866ZM23.9868 34.2866H22.6198L22.5805 35.2766H23.9755L23.9868 34.2866ZM21.9392 34.2866H20.5722L20.4935 35.2766H21.8885L21.9392 34.2866ZM19.8916 34.2866H18.5247L18.4065 35.2766H19.8016L19.8916 34.2866ZM17.844 34.2866H16.4771L16.3196 35.2766H17.7146L17.844 34.2866ZM15.7964 34.2866H14.4295L14.2382 35.2766H15.6277L15.7964 34.2866ZM11.6112 32.0084L11.8362 31.1533H12.4775L12.2694 32.0084H11.6112ZM13.1188 31.1533H14.4014L14.227 32.0084H12.9163L13.1188 31.1533ZM15.0483 31.1533H16.3308L16.1846 32.0084H14.8795L15.0483 31.1533ZM16.9721 31.1533H18.2546L18.1421 32.0084H16.8371L16.9721 31.1533ZM18.8959 31.1533H20.1785L20.0997 32.0084H18.7947L18.8959 31.1533ZM20.8198 31.1533H22.1023L22.0573 32.0084H20.7522L20.8198 31.1533ZM22.7436 31.1533H24.0261L24.0149 32.0084H22.7098L22.7436 31.1533ZM24.6674 31.1533H25.95L25.9725 32.0084H24.6674V31.1533ZM26.5913 31.1533H27.8738L27.9301 32.0084H26.625L26.5913 31.1533ZM28.5151 31.1533H29.8033L29.8876 32.0084H28.5826L28.5151 31.1533ZM30.4445 31.1533H31.7271L31.8509 32.0084H30.5458L30.4445 31.1533ZM32.3684 31.1533H33.6509L33.8084 32.0084H32.5034L32.3684 31.1533ZM34.2922 31.1533H35.5748L35.766 32.0084H34.461L34.2922 31.1533ZM36.216 31.1533H37.4986L37.7236 32.0084H36.4186L36.216 31.1533Z" fill="#3D8392" fill-opacity="0.3" stroke="white" stroke-width="0.5" stroke-miterlimit="10"/>
<path d="M41.1258 43.1122H8.26309C7.76244 43.1122 7.35742 42.7072 7.35742 42.2065H42.0314C42.0314 42.7072 41.6264 43.1122 41.1258 43.1122ZM28.7277 38.4433C28.694 38.2407 28.514 38.0889 28.3115 38.0889H21.083C20.8749 38.0889 20.7005 38.2407 20.6667 38.4433L20.2167 41.1715C20.1717 41.4303 20.3742 41.6665 20.633 41.6665H28.7559C29.0202 41.6665 29.2171 41.4303 29.1721 41.1715L28.7277 38.4433Z" fill="#D3D3D3"/>
<path d="M13.2471 14.9414H16.1891V15.2452H13.2471V14.9414ZM17.016 17.2084H19.1367V17.5121H17.016V17.2084ZM19.4686 17.2084H20.8749V17.5121H19.4686V17.2084ZM13.2808 22.9124H14.6871V23.2161H13.2808V22.9124ZM21.1562 17.2084H24.5594V17.5121H21.1562V17.2084ZM13.2808 21.7705H15.469V22.0742H13.2808V21.7705ZM16.3297 24.0431H17.6629V24.3468H16.3297V24.0431ZM13.2808 24.0431H15.9247V24.3468H13.2808V24.0431ZM13.2808 25.1793H14.7378V25.4831H13.2808V25.1793ZM16.7628 14.9414H18.8498V15.2452H16.7628V14.9414ZM16.7628 18.3447H18.8498V18.6484H16.7628V18.3447ZM15.7166 19.4754H16.611V19.7791H15.7166V19.4754ZM14.8278 20.6285H16.8303V20.9323H14.8278V20.6285ZM17.1341 20.6285H19.9017V20.9323H17.1341V20.6285ZM13.2808 19.4866H15.3678V19.7904H13.2808V19.4866ZM13.2808 20.6285H14.5184V20.9323H13.2808V20.6285ZM17.0329 19.4866H18.2029V19.7904H17.0329V19.4866ZM13.3202 26.31H14.4902V26.6138H13.3202V26.31ZM13.2752 17.2084H15.3622V17.5121H13.2752V17.2084ZM15.1203 22.9124H17.2072V23.2161H15.1203V22.9124ZM15.1484 25.1793H17.2354V25.4831H15.1484V25.1793ZM18.8554 25.1793H20.9424V25.4831H18.8554V25.1793ZM13.2752 18.3447H16.251V18.6484H13.2752V18.3447ZM27.2202 14.9414H29.3071V15.2452H27.2202V14.9414ZM19.7836 26.31H21.8706V26.6138H19.7836V26.31ZM29.954 14.9414H31.3491V15.2452H29.954V14.9414ZM34.6849 16.0777H36.0799V16.3815H34.6849V16.0777ZM19.4123 14.9414H22.0731V15.2452H19.4123V14.9414ZM29.774 16.0777H32.4348V16.3815H29.774V16.0777ZM26.5114 17.2084H29.1721V17.5121H26.5114V17.2084ZM23.0519 18.3447H25.7126V18.6484H23.0519V18.3447ZM29.504 17.2084H31.3941V17.5121H29.504V17.2084ZM24.0363 14.9414H26.697V15.2452H24.0363V14.9414ZM21.0043 18.3447H22.5625V18.6484H21.0043V18.3447ZM19.7836 22.9293H21.3418V23.233H19.7836V22.9293ZM22.5625 14.9414H23.5356V15.2452H22.5625V14.9414ZM19.4123 18.3447H20.3855V18.6484H19.4123V18.3447ZM33.0761 16.0777H34.0492V16.3815H33.0761V16.0777ZM13.2471 16.0777H14.7715V16.3815H13.2471V16.0777ZM17.3141 21.7761H18.5179V22.0798H17.3141V21.7761ZM15.1484 16.0777H15.6378V16.3815H15.1484V16.0777ZM25.2401 16.0777H29.3071V16.3815H25.2401V16.0777ZM21.3418 25.1793H25.4088V25.4831H21.3418V25.1793ZM15.9978 16.0777H16.4985V16.3815H15.9978V16.0777ZM23.5356 16.0777H24.8632V16.3815H23.5356V16.0777ZM24.8688 17.2084H26.1964V17.5121H24.8688V17.2084ZM18.0285 26.31H19.3561V26.6138H18.0285V26.31ZM20.3574 16.0777H23.1869V16.3815H20.3574V16.0777ZM17.7191 22.9293H19.373V23.233H17.7191V22.9293ZM17.6179 25.1793H18.4448V25.4831H17.6179V25.1793ZM18.9792 16.0777H19.9524V16.3815H18.9792V16.0777ZM15.7053 17.2084H16.6785V17.5121H15.7053V17.2084ZM15.8966 21.7761H16.8697V22.0798H15.8966V21.7761ZM16.9147 16.0777H18.6136V16.3815H16.9147V16.0777Z" fill="#F7F7F7"/>
<path d="M31.1576 18.3558C31.1576 18.3558 31.6526 19.194 31.8608 19.329C32.142 19.5146 31.9677 19.7002 31.8327 19.7059C31.6976 19.7059 31.0114 19.7565 30.8595 19.5821C30.7076 19.4077 30.6345 18.8958 30.4938 18.7608C30.3532 18.6258 30.207 18.0914 30.5613 17.962C30.8707 17.8439 31.1576 18.3558 31.1576 18.3558Z" fill="#BCD1D5"/>
<path d="M30.9382 17.9903C30.9382 17.9903 31.5064 18.9747 31.602 19.1153C31.6976 19.2616 31.4164 19.2616 31.242 19.1941C31.0676 19.1266 30.6288 18.4234 30.5669 18.294C30.4938 18.1422 30.5557 17.9678 30.5557 17.9678L30.9382 17.9903Z" fill="#FFE3CA"/>
<path d="M30.3655 18.5132L30.5005 19.5201L30.568 19.5257L30.5455 18.8001L30.3655 18.5132ZM26.2478 18.3557C26.2478 18.3557 26.7428 19.1938 26.9509 19.3288C27.2322 19.5145 27.0578 19.7001 26.9228 19.7057C26.7878 19.7057 26.1015 19.7564 25.9496 19.582C25.7978 19.4076 25.7246 18.8957 25.584 18.7607C25.4434 18.6257 25.2915 18.0744 25.6515 17.9619C25.9665 17.8606 26.2478 18.3557 26.2478 18.3557Z" fill="#BCD1D5"/>
<path d="M26.062 17.9903C26.062 17.9903 26.5964 18.9691 26.6977 19.1153C26.7933 19.2616 26.5121 19.2616 26.3377 19.1941C26.1633 19.1266 25.7245 18.4234 25.6627 18.294C25.5895 18.1422 25.6514 17.9678 25.6514 17.9678L26.062 17.9903Z" fill="#FFE3CA"/>
<path d="M25.46 18.5137L25.5893 19.5206L25.6625 19.5262L25.64 18.8006L25.46 18.5137Z" fill="#BCD1D5"/>
<path d="M24.0537 10.7217L28.5314 12.7637C28.5314 12.7637 29.0321 12.9268 29.0883 13.4837C29.2627 15.2163 30.5565 17.9614 30.5565 17.9614C30.9728 18.1639 30.939 17.9895 30.939 17.9895C30.6746 17.1458 30.3596 13.6806 30.2415 12.2912C30.219 11.9987 30.2021 11.7961 30.1965 11.7286C30.1965 11.6836 30.1458 11.6274 30.0615 11.5599C29.4483 11.0592 26.917 10.0298 26.917 10.0298C25.0325 9.97919 24.0537 10.7217 24.0537 10.7217Z" fill="#FFE3CA"/>
<path d="M23.2099 11.6C23.3505 12.8095 25.0775 12.6745 25.0775 12.6745H27.17C27.17 12.6745 26.6188 13.9008 26.405 14.9302C26.18 16.0271 25.6456 17.9622 25.6456 17.9622C25.6456 17.9622 25.6794 18.0297 26.0619 17.9903C26.0619 17.9903 27.7044 14.7164 28.3345 13.8895C28.4695 13.7151 28.8576 12.7476 28.9251 12.1738C28.9476 11.9826 28.9364 11.8307 28.8632 11.7688C28.7901 11.7069 28.6214 11.5944 28.402 11.4538C27.7438 11.0375 26.6075 10.4019 25.9719 10.2612C25.1225 10.07 23.778 9.70996 23.778 9.70996C23.778 9.70996 23.0692 10.3906 23.2099 11.6Z" fill="#FFE3CA"/>
<path d="M24.6332 2.2732C24.6332 2.2732 24.3182 1.67692 24.4701 1.0469C24.622 0.411245 25.2126 -0.218783 26.0733 0.0737301C26.934 0.366243 27.6315 1.03002 27.114 1.80631C26.5964 2.57696 27.5809 2.93135 27.3277 3.29699C27.0746 3.66264 27.1702 4.05078 27.2771 4.13516C27.384 4.21953 27.7271 4.5233 27.6877 4.88894C27.6484 5.24895 26.017 3.83702 26.017 3.83702C26.017 3.83702 25.1339 2.04257 24.6332 2.2732Z" fill="#0E538C"/>
<path d="M27.2596 9.87852C27.2596 9.87852 27.1302 10.5085 23.7832 9.71538C23.7832 9.71538 24.9026 9.34412 27.2596 9.87852Z" fill="#EB4747"/>
<path d="M23.7441 9.88888C23.6935 9.99014 23.6429 10.0858 23.5866 10.187C24.8073 10.2208 26.0336 10.2601 27.2543 10.2939C27.063 9.647 27.1249 8.76946 27.1587 8.10568C27.198 7.29002 27.6481 6.7275 27.603 5.90621C27.8449 5.94559 27.8843 5.95121 28.1262 5.99059C27.7549 4.93304 27.6312 4.40989 26.478 4.00488C26.1011 3.86987 25.8592 3.84737 25.4542 3.88112C24.121 3.99363 23.7216 4.00488 23.0635 5.2143C24.0873 5.37744 23.9185 5.74308 24.2279 6.76687C24.3798 7.26189 24.5373 7.81879 24.4585 8.34194C24.3798 8.85384 23.7441 9.42199 23.7441 9.88888Z" fill="white"/>
<path d="M25.8709 4.25865C25.3253 4.1574 25.4434 3.85363 25.4434 3.85363C25.4434 3.85363 25.4659 3.68488 25.4772 3.46549C25.4772 3.40924 25.4828 3.35299 25.4828 3.29111C25.4828 3.20111 25.4772 3.1111 25.4659 3.0211C25.4209 2.65546 26.4559 2.87484 26.4559 2.87484C26.4559 2.87484 26.3941 3.61737 26.5403 3.83676C26.681 4.06177 26.4166 4.36553 25.8709 4.25865Z" fill="#FFE3CA"/>
<path d="M24.8304 3.85332C24.8304 3.85332 25.9329 5.12462 26.3379 5.41714C26.3379 5.41714 26.8048 4.99524 26.5179 3.88144C26.5179 3.88144 25.9892 3.61143 24.8304 3.85332ZM24.8641 0.793185C24.8641 0.793185 24.2903 1.89573 24.8585 2.9364C25.4266 3.97707 26.5404 2.48076 26.6079 2.30638C26.6811 2.13199 27.0636 1.13632 26.3042 0.838187C25.5448 0.534424 25.0272 0.495047 24.8641 0.793185Z" fill="#FFE3CA"/>
<path d="M25.9669 3.0498C25.9669 3.0498 25.8657 3.26919 25.4775 3.46607C25.4775 3.40982 25.4832 3.35357 25.4832 3.29169C25.4832 3.29169 25.7476 3.26356 25.9669 3.0498Z" fill="#FCD2B1"/>
<path d="M20.1884 8.89971C20.1884 8.89971 19.9184 9.01784 19.789 8.96721C19.6596 8.91096 19.4627 8.89971 19.4008 8.89971C19.3165 8.89971 19.0521 8.80408 19.0577 8.91096C19.0633 9.01221 19.4852 9.08534 19.5696 9.11909C19.654 9.15284 19.3108 9.33848 19.2771 9.42285C19.2433 9.50723 19.6371 10.0585 19.8565 9.901C20.0759 9.74349 20.194 9.42848 20.239 9.40598C20.284 9.38348 20.4021 9.2991 20.4021 9.2991L20.1884 8.89971Z" fill="#FFE3CA"/>
<path d="M19.3229 9.37305C19.3229 9.37305 18.6872 9.90182 18.676 9.97495C18.6647 10.0481 18.6985 10.0818 18.7604 10.0312C18.8222 9.9862 19.3904 9.53618 19.3904 9.53618C19.3904 9.53618 18.7547 10.29 18.7322 10.3462C18.721 10.38 18.7829 10.4475 18.8166 10.425C18.8504 10.4025 19.531 9.69369 19.531 9.69369C19.531 9.69369 18.9347 10.3968 18.9347 10.4531C18.9291 10.4981 19.0022 10.5487 19.0529 10.4981C19.1035 10.4475 19.6941 9.82869 19.6941 9.82869C19.6941 9.82869 19.2947 10.3687 19.3229 10.4193C19.3398 10.4475 19.3904 10.5093 19.486 10.3687C19.5816 10.2281 19.8516 9.91307 19.8516 9.91307L19.3229 9.37305Z" fill="#FFE3CA"/>
<path d="M26.9507 12.6688H25.0775C25.0775 12.6688 23.3505 12.8095 23.2099 11.5944C23.0692 10.385 23.778 9.70996 23.778 9.70996C23.778 9.70996 24.6893 9.95185 25.4881 10.1431C25.8875 10.0587 26.3656 10.0025 26.9282 10.0193C26.9282 10.0193 30.3033 11.1331 30.202 11.7238C30.202 11.7294 28.7901 10.9756 26.9507 12.6688Z" fill="#0E538C"/>
<path d="M25.7305 10.5768L29.3081 10.5205L27.5024 11.4374L25.7305 10.5768Z" fill="#F2F2F2"/>
<path d="M26.8436 10.1149C26.8436 10.1149 26.0392 10.4242 25.0548 10.143L25.0098 9.77734L27.0405 9.88985L26.8436 10.1149Z" fill="white"/>
<path d="M27.5024 11.4368L25.7305 10.7506V10.5762L27.6431 11.2625L27.5024 11.4368Z" fill="#D3D3D3"/>
<path d="M26.8274 10.2894C26.8162 10.4188 26.9512 10.5144 27.075 10.4638L27.2831 10.3738C27.345 10.3457 27.3843 10.2838 27.3731 10.2163C27.2887 9.67627 27.1031 7.57243 27.3731 7.20679C27.4743 7.07178 27.5362 6.95365 27.57 6.8524C27.75 7.31367 27.9694 7.90995 28.0594 8.23058L29.7469 10.4807L30.3151 10.6269C29.6063 8.92249 29.0382 8.02245 29.0382 8.02245C28.9257 7.72431 28.6106 6.82427 28.3294 6.02549C28.1494 5.51922 27.9919 5.05232 27.9019 4.80481C27.8569 4.67543 27.7725 4.56855 27.6544 4.50105C27.39 4.34354 26.9568 4.09603 26.5631 3.90477H26.5574C26.5462 3.89915 26.5349 3.89352 26.5181 3.8879C27.2718 5.01857 26.9793 8.23058 26.8274 10.2894C26.8274 10.2838 26.8274 10.2838 26.8274 10.2894ZM24.0373 3.9779C23.7954 4.01728 23.1992 4.59668 22.8841 5.1817C22.5241 5.85111 22.1529 6.61051 21.8772 6.85802C21.371 7.31929 19.9478 8.94499 19.8803 8.90561C19.8521 8.88874 20.2684 9.38938 20.3247 9.41189C20.3528 9.42314 22.6591 7.42055 22.8841 7.11679C23.0923 6.8299 23.6548 5.61485 23.8236 5.64297C23.8348 5.6711 24.0429 6.11549 24.2342 6.7624C24.2398 6.77365 24.2398 6.7849 24.2455 6.79615C24.3805 7.24617 24.3692 7.74119 24.2961 8.29246C24.2398 8.70873 23.9304 9.38938 23.7448 9.72127C23.7223 9.76065 23.7279 9.8394 23.7504 9.89566C23.7673 9.92941 23.7842 9.95753 23.8123 9.96878L24.493 10.2219L24.6505 10.2782C24.763 10.3232 24.8867 10.3007 24.9767 10.2332C25.0499 10.1825 25.1061 10.0982 25.1174 9.99691C25.2693 8.83811 25.4605 7.65118 25.6124 7.20679C26.2818 5.2492 25.3536 3.77539 25.3536 3.77539C25.3536 3.77539 24.2511 3.89915 24.0373 3.9779Z" fill="#377683" fill-opacity="0.3"/>
<path d="M27.502 11.4378L28.5651 8.53516L31.9909 8.59141L30.9784 11.269L27.502 11.4378Z" fill="#565654"/>
<path d="M29.6612 9.81673C29.5543 10.0249 29.5881 10.2555 29.7343 10.323C29.8806 10.3961 30.0775 10.2836 30.1843 10.0755C30.2912 9.86736 30.2575 9.63673 30.1112 9.56922C29.965 9.4961 29.7624 9.6086 29.6612 9.81673Z" fill="#F2F0F0"/>
<path d="M27.581 4.33215C27.3279 3.94963 27.1479 3.64587 27.1254 3.10022C27.1085 2.74021 27.0298 2.25081 26.7822 2.00892C27.041 1.3339 26.7372 1.13139 26.6135 0.912002C26.4616 0.636365 25.3366 -0.0274135 24.8922 0.670117C24.4478 1.36202 24.6053 2.08768 24.6053 2.08768C24.6503 1.70516 25.044 1.18764 25.044 1.18764C25.1059 1.58703 25.9328 2.23956 26.2928 2.50395C26.2872 2.50957 26.2816 2.52082 26.2816 2.52645C26.0791 2.81896 26.3322 3.11147 26.3772 3.42086C26.4222 3.73025 25.5278 4.56279 26.5235 4.97905C27.5192 5.40095 27.8342 4.70904 27.581 4.33215ZM9.47337 37.0992C9.47337 37.0992 9.45087 37.3355 8.34832 37.3355C7.24577 37.3355 5.64258 37.0486 5.64258 37.0486L8.20206 36.8011C8.20206 36.8011 9.18648 36.7504 9.47337 37.0992Z" fill="#0E538C"/>
<path d="M6.66579 37.1836C6.04139 37.1836 5.777 37.5042 5.52949 37.6054C5.28198 37.7067 5.03447 37.8586 5.03447 37.853C5.1751 37.5773 5.37199 37.5717 5.47324 37.4817C5.5745 37.3917 5.54637 37.4367 5.32698 37.4198C5.20323 37.4086 4.97822 37.6392 4.82071 37.7686C4.68008 37.8755 4.5957 37.8867 4.5957 37.8867C4.5957 37.8867 4.75884 37.6561 4.96134 37.4704C5.20885 37.2454 5.51824 37.0598 5.59137 37.026C5.72638 36.9698 6.14265 36.9585 6.43516 36.9979C6.77267 37.0429 7.11581 37.1836 6.66579 37.1836Z" fill="#0E538C"/>
<path d="M5.63094 37.0371C5.63094 37.0371 5.15279 37.1609 5.06841 37.2284C5.01216 37.2734 4.76465 37.5378 4.76465 37.5378C4.76465 37.5378 4.94466 37.5096 5.04591 37.4084C5.15279 37.3015 5.63094 37.0371 5.63094 37.0371ZM8.56731 36.6152C8.56731 36.6152 9.77112 36.694 9.68674 37.4365C9.64174 37.8584 9.3661 38.0047 9.00046 37.9709C8.32543 37.9147 7.5604 37.8134 7.5604 37.8134L7.21726 36.6602L8.56731 36.6152Z" fill="#377683"/>
<path d="M8.82068 36.7166L10.002 32.9083C10.002 32.9083 10.1764 32.3515 10.4633 32.4527C10.8739 32.6046 10.6714 33.0602 10.6376 33.3302C10.5645 33.8815 10.6151 34.1234 10.2326 35.451C9.99636 36.2722 9.79385 37.2173 9.59134 37.7573C9.45071 38.1286 9.20883 37.5942 8.84318 37.4479C8.1569 37.1723 8.82068 36.7166 8.82068 36.7166ZM8.91069 30.8383C9.14132 31.502 9.85573 31.8452 10.5139 31.6033C11.1664 31.3614 11.5152 30.6245 11.2845 29.9607C11.0539 29.2969 10.3395 28.9538 9.68135 29.1957C9.02882 29.4376 8.68005 30.1745 8.91069 30.8383Z" fill="#0E538C"/>
<path d="M7.61603 30.8995C7.97605 31.4395 8.69608 31.5746 9.21923 31.2033L9.1461 30.5676C9.66925 30.1907 9.79863 29.4482 9.43861 28.9082L9.1911 28.5425C8.83109 28.0025 8.11105 27.8675 7.58791 28.2388L7.35165 28.4075C6.8285 28.7844 6.69912 29.527 7.05913 30.067L7.61603 30.8995Z" fill="#0E538C"/>
<path d="M7.14413 29.1279C7.20601 29.2179 7.27351 29.3023 7.35226 29.3867C7.86978 29.9492 8.56169 30.163 9.00046 29.9323C9.20297 30.208 9.4336 30.4274 9.64174 30.5961C9.88362 30.793 10.5024 30.8718 10.5024 30.8718C10.8624 31.2655 9.51236 33.5662 9.41673 33.555C9.21984 33.5381 8.96671 32.2668 9.15234 31.8055C9.23672 31.5974 9.37173 31.3499 9.33235 31.2374C9.19172 30.8493 8.99483 30.9168 8.99483 30.9168C8.99483 30.9168 8.73607 31.2205 8.53356 31.2093C8.32543 31.1924 7.96541 30.8661 7.94854 30.8605C7.88666 30.8099 7.83041 30.748 7.77978 30.6749L7.23976 29.8648C7.09913 29.6398 7.06538 29.3698 7.14413 29.1279Z" fill="#FFE3CA"/>
<path d="M11.2732 38.821C11.2732 38.821 10.8344 39.3498 10.6994 39.406C10.5194 39.4848 9.96811 39.316 9.96811 39.316C9.96811 39.316 9.82186 36.8915 9.6531 35.9465C9.48434 35.0015 9.23683 34.754 9.22558 34.4558C9.20871 33.9777 8.80931 33.7864 8.87682 33.4151C8.94432 33.0439 9.06245 31.7163 9.10183 31.8907C9.44497 33.3983 9.86686 32.1438 9.96249 31.947C10.0131 31.8401 11.2732 38.821 11.2732 38.821Z" fill="#F2F0F0"/>
<path d="M9.27636 31.4401C9.27636 31.4401 8.74196 32.0251 8.78133 32.2557C8.81509 32.4864 8.5507 33.2064 8.81509 34.2077C9.11322 35.3496 9.27073 36.1259 9.32698 36.874C9.38324 37.6222 9.1301 38.3085 9.23135 39.2254C9.31011 39.9454 9.47324 39.9848 9.47324 39.9848C9.47324 39.9848 9.79388 40.0636 10.0189 39.7823C10.2439 39.5067 9.90638 37.054 9.79388 36.4465C9.68137 35.8334 9.32136 34.4046 9.22573 33.9827C9.1076 33.4651 9.1301 32.9364 9.13573 32.7845C9.16385 32.2501 9.23135 31.9182 9.28761 31.7157C9.29323 31.6876 9.32136 31.3726 9.27636 31.4401ZM10.2101 32.1263C10.5027 32.9701 11.4139 33.4033 12.2465 33.0939C13.079 32.7845 13.5178 31.8507 13.2253 31.0069C12.9328 30.1631 12.0215 29.73 11.1889 30.0394C10.3564 30.3431 9.91764 31.2826 10.2101 32.1263Z" fill="#377683"/>
<path d="M7.34679 46.6289L7.64493 49.0084L6.35113 49.6215L5.63672 49.779L6.90802 48.7946L6.49176 46.6458L7.34679 46.6289Z" fill="#FCBAA2"/>
<path d="M7.72846 49.3675L7.4472 49.4406L7.25594 49.2662L6.22089 49.7837L5.30398 50.0031C5.30398 50.0031 5.29273 49.93 5.32086 49.8906C5.43336 49.7387 6.08026 49.4069 6.08026 49.4069C6.08026 49.4069 6.09151 49.6262 6.18152 49.6319C6.27152 49.6375 7.06468 49.2212 7.25031 49.1087C7.56533 48.9118 7.62721 48.7825 7.64971 48.7993C7.71721 48.8331 7.72846 49.3675 7.72846 49.3675Z" fill="#0E538C"/>
<path d="M4.22412 43.3208L3.1947 45.3458L1.77714 45.2783L1.06836 45.0702L2.6378 44.8058L3.49284 43.0732L4.22412 43.3208Z" fill="#FCBAA2"/>
<path d="M3.11073 45.7052L2.82947 45.6377L2.73946 45.3902L1.46253 45.3733L0.703125 45.1933C0.703125 45.1933 0.793129 45.092 0.849382 45.0639C1.01814 44.9908 1.62004 44.957 1.62004 44.957C1.62004 44.957 1.55816 45.1314 1.63692 45.1764C1.71567 45.227 2.59321 45.2552 2.80697 45.2383C3.17823 45.2102 3.28511 45.1314 3.29636 45.1539C3.33574 45.2327 3.11073 45.7052 3.11073 45.7052Z" fill="#0E538C"/>
<path d="M11.7345 37.2627L10.9695 37.6058L10.9751 38.6578L5.70429 37.7971C5.70429 37.7971 5.20364 37.634 4.883 38.4609C4.42735 39.6309 3.26855 43.2705 3.26855 43.2705L3.99984 44.0636L6.30056 39.9516C6.30056 39.9516 11.0145 42.241 12.5671 41.746C13.1634 41.5548 13.619 40.4635 13.5346 39.3609C13.4671 38.4946 13.2984 37.7015 13.2984 37.7015L11.7345 37.2627Z" fill="#565654"/>
<path d="M11.065 41.7235L7.29046 41.4423L7.61672 47.4725L6.50293 47.5119L5.68164 40.4466C5.68164 40.4466 5.90102 39.3947 6.62106 39.5522C7.34671 39.7153 9.09054 41.0991 11.065 41.7235Z" fill="#565654"/>
<path d="M13.6083 43.237C13.6083 43.237 11.6282 41.015 11.1163 39.7606C10.5032 38.2587 10.5538 36.3742 10.4413 35.7498C10.2331 34.6022 9.98 32.3747 9.935 32.099C9.88437 31.8234 10.0588 31.514 10.0588 31.514C10.0588 31.514 9.92938 30.6814 10.3006 30.7715C10.835 30.9008 11.3638 31.1933 11.5494 31.2834C11.8982 31.4409 12.6126 35.6373 12.652 35.8398C12.7983 36.5711 13.3326 37.2349 13.7152 37.9155C14.6152 39.53 14.8458 41.4369 14.8458 41.4369C14.8458 41.4369 14.7333 42.832 13.6083 43.237Z" fill="#377683"/>
<path d="M11.5647 37.426C11.5647 37.426 11.5478 37.696 10.2878 37.6342C9.0277 37.5667 7.18262 37.1448 7.18262 37.1448L10.1021 37.0098C10.1021 37.0098 11.2215 37.0154 11.5647 37.426Z" fill="#FFE3CA"/>
<path d="M8.17274 37.2906C7.57084 37.2794 7.31208 37.5887 7.07582 37.6844C6.83956 37.78 6.59767 37.9206 6.59767 37.9206C6.73268 37.6562 6.92394 37.6506 7.02519 37.5662C7.12082 37.4819 7.09832 37.5269 6.88456 37.5044C6.76081 37.4931 6.54705 37.7125 6.39517 37.8363C6.26016 37.9431 6.17578 37.9488 6.17578 37.9488C6.17578 37.9488 6.33329 37.7237 6.53017 37.5437C6.77206 37.33 7.06457 37.15 7.1377 37.1218C7.26708 37.0712 7.66647 37.0656 7.95336 37.1106C8.274 37.1556 8.60589 37.3019 8.17274 37.2906Z" fill="#FFE3CA"/>
<path d="M7.1675 37.1279C7.1675 37.1279 6.70623 37.2404 6.62747 37.3023C6.57122 37.3473 6.33496 37.6005 6.33496 37.6005C6.33496 37.6005 6.50372 37.5723 6.60497 37.4767C6.70623 37.3867 7.1675 37.1279 7.1675 37.1279Z" fill="#FFE3CA"/>
<path d="M10.5586 37.127L12.4262 36.1426C12.4262 36.1426 12.4318 37.3351 12.4431 37.7908C12.4543 38.2464 12.6456 38.8877 12.2855 38.9833C11.9255 39.079 11.7399 39.0283 12.1112 39.2477C12.4824 39.4615 12.398 39.6865 12.2574 39.8721C12.1168 40.0577 12.7299 41.9478 12.5837 42.0547C12.0043 41.3234 11.3799 40.4178 11.1099 39.7596C10.7667 38.9046 10.6317 37.9258 10.5586 37.127Z" fill="#7FAAB3" fill-opacity="0.5"/>
<path d="M11.1596 36.6488L11.0865 32.8461C11.0865 32.8461 11.0921 31.6592 11.1146 31.3104C11.1371 30.9504 11.7503 31.3723 11.7503 31.3723C11.7503 31.3723 12.6109 32.5367 12.6278 35.3437C12.639 37.2226 12.5378 38.2014 11.6715 38.1226C10.8671 38.0495 9.95017 37.9257 9.95017 37.9257L9.55078 36.8851L11.1596 36.6488Z" fill="#377683"/>
<path d="M10.9687 38.6572L4.53906 37.8528L4.55594 37.7178L10.9856 38.5222L10.9687 38.6572Z" fill="#D3D3D3"/>
<path d="M8.15178 38.1623C8.14053 38.2692 8.05615 38.348 7.96615 38.3367L4.66975 37.9261C4.57975 37.9148 4.46725 37.8304 4.38849 37.5492L3.11719 34.2584C3.13406 34.1234 3.24094 34.0559 3.33095 34.0897L6.70047 34.6184C6.79047 34.6522 6.85235 34.7309 6.8861 34.8772L8.15178 38.1623Z" fill="#D3D3D3"/>
<path d="M7.73475 38.2519L7.7685 38.2576L10.9861 38.6626C10.8624 38.7132 10.6655 38.7301 10.4461 38.7019L7.75162 38.3644L7.71787 38.3588L5.02338 38.0213C4.804 37.9932 4.61836 37.9257 4.50586 37.8525L7.73475 38.2519Z" fill="#D3D3D3"/>
<path d="M11.1612 36.6494L11.0881 32.8468C11.0881 32.8468 11.1443 32.5261 11.2568 32.2393C11.285 32.6555 11.4762 35.6538 11.4987 36.0475C11.5268 36.4751 11.8756 36.5201 11.9487 36.6607C12.0275 36.7957 11.96 36.8238 11.7012 36.7732C11.4481 36.717 11.5381 36.762 11.5943 36.897C11.6506 37.0376 11.51 36.9982 11.0149 36.8182C10.6549 36.6888 9.96302 36.8182 9.61426 36.897L11.1612 36.6494Z" fill="#7FAAB3" fill-opacity="0.5"/>
<path d="M33.392 27.3172C32.7733 27.4803 31.6313 28.0541 31.3895 29.0385C31.0294 30.5179 31.7495 32.6837 30.6132 34.81C30.2475 35.485 36.8966 36.3963 36.8966 36.3963L38.1791 28.926C38.1791 28.926 36.5759 27.3059 36.2497 27.1934C35.569 26.9684 34.6296 26.9909 33.392 27.3172Z" fill="#BCD1D5"/>
<path d="M38.1844 28.9308C38.415 29.5271 39 33.0766 38.3475 33.9148C38.2744 34.0104 38.685 34.1623 38.6119 34.6011C38.6006 34.6742 38.4769 35.0286 38.4769 35.0286L37.9481 35.1692L36.7949 33.836C36.7949 33.836 37.2618 33.1104 37.875 30.3596C38.055 29.5496 38.1337 28.7958 38.1844 28.9308Z" fill="#377683"/>
<path d="M33.8192 33.1731C33.8192 33.1731 34.3761 34.6413 35.7205 35.035C35.9512 35.1025 36.0974 35.3613 35.9849 35.4457C35.8387 35.5526 35.6474 35.5751 35.3099 35.5751C34.6068 35.5751 33.6505 35.3501 32.9923 34.6863C32.0135 33.7075 31.7041 33.2575 31.8054 32.7681C31.8954 32.2674 33.8192 33.1731 33.8192 33.1731Z" fill="#FCD2B1"/>
<path d="M31.5803 28.5428C31.2934 29.0265 31.1303 29.8028 31.1359 30.9166C31.1359 31.7773 31.8559 33.1892 31.9628 33.6224C31.9797 33.6955 32.0247 34.0049 32.0247 34.0049L32.8178 34.8149L34.4098 33.6955L33.926 32.9248L33.7797 32.9417C33.7797 32.9417 33.6897 32.5142 33.7122 32.3511C33.7347 32.1879 33.2735 29.966 33.0428 28.5428C32.9135 27.7159 31.8615 28.0646 31.5803 28.5428Z" fill="#377683"/>
<path d="M33.0085 32.9088L33.4754 32.7625L33.6666 32.7119C33.6779 32.8469 33.7904 32.9369 33.7904 32.9369L33.4247 32.9819L33.0028 33.1169L32.5078 33.4713L33.0085 32.9088Z" fill="#0E538C"/>
<path d="M35.6189 35.0295L36.4289 34.7988C36.4289 34.7988 36.6595 35.1195 36.6145 35.1982C36.5695 35.277 36.6145 35.7495 36.6145 35.7495L36.2208 36.0983L35.9001 35.9858C35.9001 35.9858 35.8776 35.8395 35.9845 35.8282C36.097 35.8114 35.9114 35.7326 35.8551 35.6989C35.7989 35.6595 35.332 35.412 35.6189 35.0295Z" fill="#FCD2B1"/>
<path d="M34.3706 27.2438C34.2806 27.5082 34.4156 27.8063 34.6744 27.8963L35.1357 28.0651C35.3944 28.1607 35.6757 28.0145 35.7657 27.7501L36.1763 26.535C36.2664 26.2706 36.1313 25.9725 35.8726 25.8769L35.4113 25.7081C35.1526 25.6125 34.8713 25.7587 34.7813 26.0231L34.3706 27.2438Z" fill="#FF957E"/>
<path d="M36.3841 28.313C36.3391 28.4874 36.1591 28.5943 35.9904 28.5436L34.6009 28.1442C34.4322 28.0936 34.3309 27.9136 34.3759 27.7336L34.9441 25.6016C34.9891 25.4273 35.1691 25.3204 35.3378 25.371L36.7273 25.7648C36.896 25.8154 36.9973 25.9954 36.9523 26.1754L36.3841 28.313Z" fill="#FCD2B1"/>
<path d="M37.1042 25.9615C37.1154 25.9502 36.9748 25.7927 37.0479 25.4833C37.1435 25.0671 36.8342 24.8983 36.6035 24.8927C36.4685 24.8871 36.0129 25.1064 35.771 25.1796C35.5291 25.2527 35.5516 25.1571 35.1128 25.0783C34.8203 25.0221 34.7528 25.1852 34.6516 25.4102C34.5503 25.6408 34.5391 26.5184 34.5391 26.5184C34.5784 26.5746 34.6403 26.6196 34.6797 26.5746C34.7191 26.5296 34.8766 25.8265 35.006 25.6183C35.1297 25.4102 35.636 25.7421 35.9116 25.9052C36.1816 26.0684 36.4235 26.0965 36.8567 26.0065C36.9073 26.0627 36.9523 26.1246 36.9523 26.1527C36.9523 26.209 36.8285 26.6084 36.8285 26.6084C36.8285 26.6084 37.0704 26.4565 37.1379 26.3384C37.1717 26.299 37.1829 26.1077 37.1042 25.9615Z" fill="#C8856A"/>
<path d="M34.8146 27.2885C34.7977 27.3448 34.7414 27.3842 34.6852 27.3673L34.3871 27.2829C34.3308 27.266 34.2971 27.2042 34.3139 27.1479L34.4658 26.5798C34.4827 26.5235 34.5389 26.4841 34.5952 26.501L34.8933 26.5854C34.9496 26.6023 34.9833 26.6641 34.9665 26.7204L34.8146 27.2885Z" fill="#FCD2B1"/>
<path d="M34.6281 26.749C34.6281 26.749 34.4031 27.5872 34.33 27.8684C34.2625 28.1216 34.2118 28.7066 35.59 29.1004C36.4057 29.331 36.5407 28.701 36.5969 28.4985C36.6363 28.341 36.5913 27.8291 36.5294 27.7166C36.5294 27.7109 36.4394 28.0653 36.4394 28.0653C36.4394 28.0653 36.3607 27.6772 35.9725 27.5703C35.3481 27.3903 35.1006 27.7334 34.8306 27.6434C34.6168 27.5703 34.555 27.1653 34.6281 26.749Z" fill="#C8856A"/>
<path d="M35.5682 28.0367L35.9957 28.1605C36.052 28.1774 36.1139 28.1436 36.1251 28.0817L36.142 28.0199L35.5063 27.8398L35.4895 27.9017C35.4782 27.9636 35.512 28.0199 35.5682 28.0367Z" fill="#FCD2B1"/>
<path d="M42.3476 36.5596C42.1507 37.1278 38.6855 39.2147 37.5211 39.091L34.0166 39.2653C31.0408 38.8885 29.6289 34.0957 29.6289 34.0957C29.747 32.8919 32.6834 34.6358 33.7297 35.1758C35.3835 36.0308 36.4355 36.0758 36.4355 36.0758C37.5436 36.194 38.8262 35.3052 40.2269 35.277C41.7626 35.2377 42.6626 35.6652 42.3476 36.5596Z" fill="#0B4870"/>
<path d="M34.7305 35.9858C34.7305 35.9802 34.7305 35.9802 34.7305 35.9858V35.8283L40.7551 35.7158V35.8733L40.7382 35.9015C40.6651 36.0365 40.5245 36.059 40.367 36.0646L35.1242 36.1658C34.9667 36.1715 34.8261 36.149 34.7473 36.0196L34.7305 35.9858Z" fill="#D3D3D3"/>
<path d="M36.1817 35.9794L36.1648 36.0075C36.1423 36.0412 36.1142 36.0694 36.0804 36.0862L35.1635 36.1031C35.0116 36.1087 34.8766 36.0919 34.7979 35.985L34.781 35.9625L34.7754 35.9569V35.8837L36.1705 35.8556L36.1817 35.9794ZM36.9974 35.9231L40.0069 35.8669V35.76L36.9917 35.8219L36.9974 35.9231ZM36.2155 35.7937L36.9411 32.7111C36.958 32.6323 37.0367 32.5648 37.1155 32.5592L41.3457 32.4805C41.4244 32.4805 41.4694 32.5423 41.4526 32.6267L40.7269 35.7094L36.2155 35.7937Z" fill="#D3D3D3"/>
<path d="M33.4872 40.0586C33.9035 40.1317 34.2242 39.631 34.2242 39.631L35.3042 38.7535L35.0736 38.1572L32.9697 39.136C32.9697 39.136 33.0654 39.9854 33.4872 40.0586Z" fill="#FCD2B1"/>
<path d="M34.2187 39.597C34.2187 39.597 34.2187 39.6477 34.14 39.8783C34.0612 40.1089 33.96 40.1877 33.8587 40.2214C33.4537 40.3452 33.1668 40.2833 32.1993 40.4746C31.2317 40.6658 30.9392 40.5196 30.6579 40.0583C30.3767 39.597 30.6692 39.2314 31.1417 39.1976C31.8224 39.147 32.2049 39.2258 32.5593 39.1695C32.9305 39.1133 32.953 39.0233 33.1724 38.8826C33.3749 38.7532 33.5662 39.5295 33.3749 39.7095C33.2005 39.867 34.0781 39.8895 34.2187 39.597Z" fill="#BCD1D5"/>
<path d="M34.0166 40.0416C33.6173 40.1653 33.3247 40.1034 32.3572 40.2947C31.3897 40.4859 31.0971 40.3397 30.8159 39.8784C30.6865 39.6647 30.6809 39.4734 30.754 39.3271C30.5402 39.479 30.4671 39.7434 30.6584 40.0584C30.9396 40.5197 31.2321 40.666 32.1997 40.4747C33.1672 40.2834 33.4597 40.3453 33.8591 40.2216C33.9379 40.1991 34.0166 40.1428 34.0841 40.0134C34.0616 40.0247 34.0391 40.0359 34.0166 40.0416Z" fill="white"/>
<path d="M34.2183 39.6138V39.6025C34.2183 39.6082 34.2127 39.6138 34.207 39.6194C34.2127 39.6138 34.2183 39.6138 34.2183 39.6138Z" fill="#E9D6B8"/>
<path d="M32.1311 39.9564C32.103 39.9676 32.0749 39.9057 32.0636 39.8214C32.0467 39.647 32.0074 39.4782 31.9511 39.3038C31.923 39.2195 31.923 39.1463 31.9567 39.1351C31.9905 39.1238 32.0467 39.1857 32.0692 39.2701C32.1255 39.4388 32.1592 39.6132 32.1761 39.782C32.1874 39.8664 32.1592 39.9451 32.1311 39.9564ZM32.4292 39.9001C32.3955 39.9057 32.3674 39.8495 32.3561 39.7707C32.3392 39.6076 32.2999 39.4445 32.2436 39.287C32.2155 39.2082 32.2155 39.1407 32.2549 39.1351C32.2886 39.1295 32.3449 39.1913 32.373 39.2701C32.4236 39.4276 32.463 39.5907 32.4799 39.7482C32.4855 39.827 32.463 39.8945 32.4292 39.9001ZM32.7443 39.8889C32.7105 39.8945 32.6768 39.8326 32.6655 39.7482C32.6374 39.5795 32.598 39.4163 32.5361 39.2476C32.508 39.1632 32.508 39.0957 32.5418 39.0957C32.5811 39.0957 32.6374 39.1576 32.6655 39.242C32.7274 39.4051 32.7668 39.5739 32.7893 39.737C32.8005 39.8157 32.778 39.8832 32.7443 39.8889Z" fill="white"/>
<path d="M33.5596 38.6234C33.5596 38.6234 40.968 35.4676 41.3899 35.462C42.8187 35.4507 42.4925 36.947 41.7668 37.6558C40.9118 38.4884 34.409 40.0128 34.409 40.0128L33.5596 38.6234Z" fill="#0E538C"/>
<path d="M36.4968 39.1753L34.4717 37.1839L35.338 36.3008L37.5431 38.7084L36.4968 39.1753Z" fill="#FCD2B1"/>
<path d="M36.9133 37.6111C36.9133 37.6111 31.7662 32.7228 31.4231 32.5765C30.2474 32.0815 29.5217 33.4259 29.5611 33.8928C29.6173 34.4947 34.8432 39.3887 34.8432 39.3887L36.9133 37.6111Z" fill="#0E538C"/>
<path d="M39.962 39.3266C40.0801 39.4391 40.1026 39.7822 40.1026 39.7822C40.1026 39.7822 38.3869 40.4573 37.785 40.4685C37.6275 40.4741 37.3463 40.4066 37.0763 40.3279C37.0313 40.3166 36.9244 40.1929 36.8794 40.1816C36.795 40.1591 36.7781 40.2379 36.7106 40.2154C36.5306 40.1535 36.3956 40.1029 36.39 40.0916C36.0243 39.2928 36.1481 38.8991 36.1481 38.8991C36.1481 38.8991 36.9356 39.1353 36.8006 38.9497C36.5137 38.5559 37.3406 38.1565 37.5207 38.3647C38.2632 39.2028 39.6132 38.9947 39.962 39.3266Z" fill="#BCD1D5"/>
<path d="M40.0581 39.4957C39.5293 39.7151 38.4211 40.1595 38.2017 40.1764C37.2961 40.2439 36.666 39.912 36.2441 39.7151C36.2835 39.8276 36.3285 39.957 36.3904 40.092C36.396 40.1033 36.5254 40.1539 36.711 40.2158C36.7842 40.2383 36.801 40.1539 36.8798 40.182C36.9248 40.1933 37.026 40.317 37.0767 40.3283C37.3467 40.407 37.628 40.4689 37.7855 40.4689C38.3874 40.4577 40.1031 39.7826 40.1031 39.7826C40.1031 39.7826 40.1031 39.6251 40.0581 39.4957ZM38.8486 38.9782C38.8655 39.012 38.798 39.0457 38.7024 39.0682C38.5055 39.1076 38.3142 39.1695 38.123 39.2482C38.0273 39.2876 37.943 39.2989 37.9317 39.2651C37.9205 39.2314 37.9823 39.1695 38.078 39.1301C38.2636 39.0513 38.4605 38.9951 38.6517 38.9557C38.7417 38.9276 38.8318 38.9445 38.8486 38.9782ZM38.4605 38.8376C38.4774 38.8713 38.4099 38.9163 38.3142 38.9445C38.123 39.0007 37.9373 39.0795 37.7517 39.1751C37.6617 39.2201 37.5773 39.237 37.5661 39.2032C37.5548 39.1695 37.6167 39.0963 37.7067 39.0513C37.8867 38.9613 38.0723 38.8826 38.2636 38.832C38.3592 38.7926 38.4492 38.8038 38.4605 38.8376ZM38.0892 38.7138C38.1005 38.7476 38.0386 38.7982 37.9486 38.832C37.763 38.9051 37.5829 38.9951 37.4086 39.102C37.3242 39.1582 37.2454 39.1751 37.2342 39.1357C37.2229 39.102 37.2792 39.0232 37.3692 38.967C37.5436 38.8601 37.7236 38.7701 37.9036 38.7026C37.9936 38.6745 38.078 38.6801 38.0892 38.7138Z" fill="white"/>
</svg>
