<svg width="1170" height="1070" viewBox="0 0 1170 1070" fill="none" xmlns="http://www.w3.org/2000/svg">
    <rect x="661.666" width="508.333" height="1088" fill="#039EDE" />
    <path opacity="0.12"
        d="M1086.27 475.507L1043.63 563.76L964.152 563.76L921.521 475.507L964.152 387.253L1043.63 387.253L1086.27 475.507Z"
        stroke="white" stroke-width="40" />
    <path opacity="0.08"
        d="M1247.38 302.061L1331.65 474.774L1249.1 648.781L1088.18 649.953L1003.91 477.24L1086.46 303.233L1247.38 302.061ZM1244.77 296.719L1244.78 296.73C1244.78 296.726 1244.78 296.723 1244.77 296.719Z"
        stroke="white" stroke-width="40" />
    <circle opacity="0.1" cx="64.5033" cy="64.5033" r="64.5033"
        transform="matrix(0.640184 0.768222 -0.640184 0.768221 1140.08 834.002)" fill="white" />
    <circle opacity="0.35" cx="38.8499" cy="38.8499" r="37.8499"
        transform="matrix(0.640184 0.768222 -0.640184 0.768221 1101.02 922.067)" stroke="white" stroke-width="2" />
    <path
        d="M937.07 336.646C937.07 335.557 937.8 334.68 938.708 334.68C939.615 334.68 940.346 335.557 940.346 336.646C940.346 337.735 939.615 338.612 938.708 338.612C937.806 338.605 937.076 337.728 937.07 336.646Z"
        fill="white" />
    <path
        d="M911.449 336.645C911.449 335.556 912.18 334.679 913.088 334.679C913.995 334.679 914.726 335.556 914.726 336.645C914.726 337.734 913.995 338.611 913.088 338.611C912.18 338.611 911.455 337.727 911.449 336.645Z"
        fill="white" />
    <path
        d="M885.828 336.646C885.828 335.557 886.559 334.68 887.466 334.68C888.374 334.68 889.105 335.557 889.105 336.646C889.105 337.735 888.374 338.612 887.466 338.612C886.565 338.605 885.828 337.721 885.828 336.646Z"
        fill="white" />
    <path
        d="M863.001 338.031C863.639 337.266 863.639 336.025 863.001 335.26C862.363 334.494 861.329 334.494 860.691 335.26C860.053 336.025 860.053 337.266 860.691 338.031C861.329 338.797 862.363 338.797 863.001 338.031Z"
        fill="white" />
    <path
        d="M834.587 336.646C834.587 335.557 835.317 334.68 836.225 334.68C837.132 334.68 837.863 335.557 837.863 336.646C837.863 337.734 837.132 338.611 836.225 338.611C835.317 338.611 834.581 337.727 834.587 336.646Z"
        fill="white" />
    <path
        d="M937.07 309.167C937.07 308.078 937.8 307.202 938.708 307.202C939.615 307.202 940.346 308.078 940.346 309.167C940.346 310.256 939.615 311.133 938.708 311.133C937.806 311.126 937.076 310.249 937.07 309.167Z"
        fill="white" />
    <path
        d="M911.449 309.167C911.449 308.078 912.179 307.202 913.087 307.202C913.994 307.202 914.725 308.078 914.725 309.167C914.725 310.256 913.994 311.133 913.087 311.133C912.185 311.126 911.455 310.249 911.449 309.167Z"
        fill="white" />
    <path
        d="M885.829 309.168C885.829 308.079 886.56 307.202 887.467 307.202C888.375 307.202 889.105 308.079 889.105 309.168C889.105 310.257 888.375 311.134 887.467 311.134C886.56 311.134 885.829 310.257 885.829 309.168Z"
        fill="white" />
    <path
        d="M863.001 310.553C863.639 309.787 863.639 308.546 863.001 307.781C862.363 307.016 861.329 307.016 860.691 307.781C860.053 308.546 860.053 309.787 860.691 310.553C861.329 311.318 862.363 311.318 863.001 310.553Z"
        fill="white" />
    <path
        d="M837.38 310.553C838.018 309.787 838.018 308.546 837.38 307.781C836.742 307.016 835.708 307.016 835.07 307.781C834.433 308.546 834.433 309.787 835.07 310.553C835.708 311.318 836.742 311.318 837.38 310.553Z"
        fill="white" />
    <path
        d="M939.862 283.075C940.5 282.31 940.5 281.069 939.862 280.304C939.224 279.538 938.19 279.538 937.552 280.304C936.914 281.069 936.914 282.31 937.552 283.075C938.19 283.841 939.224 283.841 939.862 283.075Z"
        fill="white" />
    <path
        d="M914.243 283.075C914.881 282.31 914.881 281.069 914.243 280.304C913.605 279.538 912.571 279.538 911.933 280.304C911.295 281.069 911.295 282.31 911.933 283.075C912.571 283.841 913.605 283.841 914.243 283.075Z"
        fill="white" />
    <path
        d="M885.829 281.689C885.829 280.601 886.56 279.724 887.467 279.724C888.375 279.724 889.105 280.601 889.105 281.689C889.105 282.778 888.375 283.655 887.467 283.655C886.56 283.655 885.829 282.778 885.829 281.689Z"
        fill="white" />
    <path
        d="M860.207 281.688C860.207 280.6 860.938 279.723 861.845 279.723C862.753 279.723 863.483 280.6 863.483 281.688C863.483 282.777 862.753 283.654 861.845 283.654C860.938 283.654 860.207 282.777 860.207 281.688Z"
        fill="white" />
    <path
        d="M834.587 281.688C834.587 280.6 835.317 279.723 836.225 279.723C837.132 279.723 837.863 280.6 837.863 281.688C837.863 282.777 837.132 283.654 836.225 283.654C835.317 283.654 834.587 282.777 834.587 281.688Z"
        fill="white" />
    <path
        d="M937.076 254.218C937.076 253.129 937.807 252.252 938.714 252.252C939.622 252.252 940.352 253.129 940.352 254.218C940.352 255.307 939.622 256.184 938.714 256.184C937.807 256.184 937.07 255.3 937.076 254.218Z"
        fill="white" />
    <path
        d="M911.455 254.218C911.455 253.129 912.185 252.252 913.093 252.252C914 252.252 914.731 253.129 914.731 254.218C914.731 255.307 914 256.184 913.093 256.184C912.18 256.176 911.449 255.3 911.455 254.218Z"
        fill="white" />
    <path
        d="M885.829 254.211C885.829 253.122 886.56 252.245 887.467 252.245C888.375 252.245 889.105 253.122 889.105 254.211C889.105 255.3 888.375 256.177 887.467 256.177C886.56 256.177 885.829 255.3 885.829 254.211Z"
        fill="white" />
    <path
        d="M862.995 255.604C863.632 254.838 863.632 253.597 862.995 252.832C862.357 252.066 861.323 252.066 860.685 252.832C860.047 253.597 860.047 254.838 860.685 255.604C861.323 256.369 862.357 256.369 862.995 255.604Z"
        fill="white" />
    <path
        d="M834.587 254.211C834.587 253.122 835.317 252.245 836.225 252.245C837.132 252.245 837.863 253.122 837.863 254.211C837.863 255.3 837.132 256.177 836.225 256.177C835.317 256.177 834.587 255.3 834.587 254.211Z"
        fill="white" />
    <path
        d="M937.076 226.739C937.076 225.65 937.807 224.774 938.714 224.774C939.622 224.774 940.352 225.65 940.352 226.739C940.352 227.828 939.622 228.705 938.714 228.705C937.807 228.705 937.07 227.821 937.076 226.739Z"
        fill="white" />
    <path
        d="M911.455 226.739C911.455 225.65 912.185 224.774 913.093 224.774C914 224.774 914.731 225.65 914.731 226.739C914.731 227.828 914 228.705 913.093 228.705C912.185 228.705 911.449 227.821 911.455 226.739Z"
        fill="white" />
    <path
        d="M885.828 226.747C885.828 225.658 886.559 224.781 887.466 224.781C888.374 224.781 889.105 225.658 889.105 226.747C889.105 227.835 888.374 228.712 887.466 228.712C886.565 228.705 885.828 227.821 885.828 226.747Z"
        fill="white" />
    <path
        d="M862.995 228.125C863.632 227.36 863.632 226.119 862.995 225.353C862.357 224.588 861.323 224.588 860.685 225.353C860.047 226.119 860.047 227.36 860.685 228.125C861.323 228.891 862.357 228.891 862.995 228.125Z"
        fill="white" />
    <path
        d="M837.374 228.125C838.011 227.36 838.011 226.119 837.374 225.353C836.736 224.588 835.701 224.588 835.064 225.353C834.426 226.119 834.426 227.36 835.064 228.125C835.701 228.891 836.736 228.891 837.374 228.125Z"
        fill="white" />
    <path opacity="0.1"
        d="M878.902 448.356C842.893 616.563 777.411 734.933 633.959 712.207C494.767 690.156 378.142 579.316 376.68 410.814C375.202 240.571 492.913 121.16 633.959 103.075C809.116 80.6167 922.74 243.58 878.902 448.356Z"
        fill="white" />
    <path opacity="0.1"
        d="M277.864 801.406L277.007 775.653L295.156 761.86L313.801 773.597L314.658 799.35L296.509 813.143L277.864 801.406ZM276.99 775.164C276.99 775.165 276.99 775.165 276.99 775.166L276.99 775.164ZM276.664 775.913C276.664 775.914 276.663 775.914 276.663 775.914L276.664 775.913Z"
        stroke="#039EDE" stroke-width="5" />
    <path opacity="0.08"
        d="M47.9855 879.384C48.2011 885.611 41.9929 889.914 37.6057 886.579L5.93435 862.502C2.09279 859.582 2.54535 852.81 6.77817 849.876L36.8934 829.002C41.1262 826.068 46.2407 828.981 46.4295 834.433L47.9855 879.384Z"
        stroke="#039EDE" stroke-width="6" />
    <ellipse opacity="0.1" cx="483.75" cy="260.502" rx="32.9166" ry="39.5" fill="#039EDE" />
    <path opacity="0.5"
        d="M518.166 244.502C518.166 260.973 507.071 274.002 493.749 274.002C480.427 274.002 469.333 260.973 469.333 244.502C469.333 228.031 480.427 215.002 493.749 215.002C507.071 215.002 518.166 228.031 518.166 244.502Z"
        stroke="#039EDE" stroke-width="2" />
    <path opacity="0.1"
        d="M840.236 439.354C804.227 607.561 738.745 725.931 595.293 703.205C456.101 681.154 339.476 570.314 338.014 401.812C336.536 231.569 454.247 112.158 595.293 94.0732C770.45 71.6148 884.074 234.578 840.236 439.354Z"
        fill="#039EDE" />
</svg>