<svg width="242" height="58" viewBox="0 0 242 58" fill="none" xmlns="http://www.w3.org/2000/svg">
<g filter="url(#filter0_d_1_3535)">
<rect x="4" width="234" height="50" rx="25" fill="#31C48D"/>
</g>
<path d="M54.1642 32.1C52.9242 32.1 51.9642 31.9733 51.2842 31.72C50.6176 31.4667 50.1509 31.0733 49.8842 30.54C49.6176 29.9933 49.4642 29.3067 49.4242 28.48L49.0042 17.36H51.8042L52.2242 27.14C52.2509 27.7533 52.3176 28.2133 52.4242 28.52C52.5309 28.8267 52.7309 29.0333 53.0242 29.14C53.3309 29.2467 53.7776 29.3 54.3642 29.3C54.8709 29.3 55.2309 29.4333 55.4442 29.7C55.6709 29.9533 55.7842 30.2733 55.7842 30.66C55.7842 31.0733 55.6442 31.42 55.3642 31.7C55.0842 31.9667 54.6842 32.1 54.1642 32.1ZM54.1914 32.1L54.3914 29.3C54.8981 29.3 55.2981 29.2533 55.5914 29.16C55.8981 29.0667 56.1381 28.88 56.3114 28.6C56.4981 28.3067 56.6514 27.88 56.7714 27.32C56.9047 26.76 57.0381 26.0133 57.1714 25.08L59.7914 25.52C59.7647 25.72 59.7247 25.9533 59.6714 26.22C59.6314 26.4867 59.5914 26.76 59.5514 27.04C59.5247 27.3067 59.5114 27.56 59.5114 27.8C59.5114 28.12 59.5781 28.3933 59.7114 28.62C59.8581 28.8333 60.1114 29 60.4714 29.12C60.8447 29.24 61.3781 29.3 62.0714 29.3C62.5781 29.3 62.9381 29.4333 63.1514 29.7C63.3647 29.9533 63.4714 30.2733 63.4714 30.66C63.4714 31.0733 63.3314 31.42 63.0514 31.7C62.7847 31.9667 62.3914 32.1 61.8714 32.1C60.9514 32.1 60.2047 32.0133 59.6314 31.84C59.0581 31.6667 58.6314 31.3733 58.3514 30.96C58.0714 30.5467 57.8914 29.98 57.8114 29.26H58.7714C58.5314 29.9 58.2514 30.4133 57.9314 30.8C57.6114 31.1733 57.2514 31.4533 56.8514 31.64C56.4514 31.8267 56.0247 31.9467 55.5714 32C55.1314 32.0667 54.6714 32.1 54.1914 32.1ZM58.2714 23.04C57.8581 23.04 57.5047 22.9 57.2114 22.62C56.9314 22.34 56.7914 21.9933 56.7914 21.58C56.7914 21.1667 56.9314 20.8133 57.2114 20.52C57.5047 20.2267 57.8581 20.08 58.2714 20.08C58.6714 20.08 59.0114 20.2267 59.2914 20.52C59.5847 20.8133 59.7314 21.1667 59.7314 21.58C59.7314 21.9933 59.5847 22.34 59.2914 22.62C59.0114 22.9 58.6714 23.04 58.2714 23.04ZM61.7872 32.1L61.9872 29.3C62.9205 29.3 63.7605 29.24 64.5072 29.12C65.2539 28.9867 65.9072 28.8133 66.4672 28.6C67.0405 28.3867 67.5139 28.14 67.8872 27.86C68.2739 27.58 68.5605 27.2867 68.7472 26.98C68.9472 26.66 69.0472 26.3467 69.0472 26.04C69.0472 25.8667 69.0005 25.7067 68.9072 25.56C68.8272 25.4 68.6872 25.2733 68.4872 25.18C68.2872 25.0733 68.0139 25.02 67.6672 25.02C67.4939 25.02 67.2872 25.04 67.0472 25.08C66.8072 25.12 66.5672 25.18 66.3272 25.26C66.0872 25.3267 65.8605 25.42 65.6472 25.54C65.9272 25.7533 66.2339 26.0267 66.5672 26.36C66.9005 26.68 67.2339 27.02 67.5672 27.38C67.9005 27.7267 68.1872 28.0667 68.4272 28.4C68.7072 28.52 69.0139 28.64 69.3472 28.76C69.6939 28.8667 70.0672 28.96 70.4672 29.04C70.8672 29.12 71.2872 29.1867 71.7272 29.24C72.1672 29.28 72.6205 29.3 73.0872 29.3C73.5939 29.3 73.9539 29.4333 74.1672 29.7C74.3939 29.9533 74.5072 30.2733 74.5072 30.66C74.5072 31.0733 74.3672 31.42 74.0872 31.7C73.8072 31.9667 73.4072 32.1 72.8872 32.1C71.8205 32.1 70.8739 32.02 70.0472 31.86C69.2205 31.6867 68.4805 31.44 67.8272 31.12C67.1872 30.7867 66.5872 30.3867 66.0272 29.92C65.8672 29.64 65.6405 29.34 65.3472 29.02C65.0672 28.6867 64.7672 28.3667 64.4472 28.06C64.1405 27.7533 63.8605 27.5 63.6072 27.3C63.5405 27.2467 63.4605 27.1067 63.3672 26.88C63.2872 26.64 63.2139 26.3933 63.1472 26.14C63.0805 25.8733 63.0472 25.6867 63.0472 25.58C63.0472 25.2733 63.1872 24.9467 63.4672 24.6C63.7605 24.2533 64.1472 23.9333 64.6272 23.64C65.1205 23.3333 65.6605 23.0867 66.2472 22.9C66.8472 22.7 67.4539 22.6 68.0672 22.6C68.8939 22.6 69.5805 22.7267 70.1272 22.98C70.6872 23.22 71.1072 23.56 71.3872 24C71.6672 24.4267 71.8072 24.9267 71.8072 25.5C71.8072 26.14 71.6672 26.78 71.3872 27.42C71.1072 28.0467 70.6939 28.64 70.1472 29.2C69.6139 29.76 68.9405 30.26 68.1272 30.7C67.3272 31.1267 66.3939 31.4667 65.3272 31.72C64.2739 31.9733 63.0939 32.1 61.7872 32.1ZM72.9023 32.1L73.1023 29.3C73.409 29.3 73.669 29.2267 73.8823 29.08C74.109 28.92 74.3423 28.66 74.5823 28.3C74.8223 27.9267 75.1023 27.4267 75.4223 26.8C75.8223 26 76.2357 25.3733 76.6623 24.92C77.1023 24.4667 77.549 24.1467 78.0023 23.96C78.469 23.76 78.9357 23.66 79.4023 23.66C79.989 23.66 80.5357 23.7867 81.0423 24.04C81.549 24.2933 81.989 24.64 82.3623 25.08C82.7357 25.5067 83.0223 26 83.2223 26.56C83.4357 27.1067 83.5423 27.6733 83.5423 28.26C83.5423 28.9667 83.389 29.6067 83.0823 30.18C82.789 30.74 82.3757 31.1867 81.8423 31.52C81.3223 31.84 80.7223 32 80.0423 32C79.469 32 78.8023 31.9 78.0423 31.7C77.2823 31.5 76.4823 31.08 75.6423 30.44L76.6623 28.02C77.2623 28.4333 77.8223 28.7333 78.3423 28.92C78.8757 29.1067 79.3157 29.2 79.6623 29.2C79.929 29.2 80.149 29.1733 80.3223 29.12C80.4957 29.0667 80.6223 28.98 80.7023 28.86C80.7823 28.74 80.8223 28.58 80.8223 28.38C80.8223 28.1 80.7557 27.8133 80.6223 27.52C80.489 27.2267 80.309 26.98 80.0823 26.78C79.869 26.5667 79.6157 26.46 79.3223 26.46C79.0423 26.46 78.8023 26.5667 78.6023 26.78C78.4157 26.98 78.229 27.2733 78.0423 27.66C77.869 28.0333 77.6557 28.4733 77.4023 28.98C77.0957 29.5933 76.7957 30.1067 76.5023 30.52C76.209 30.92 75.8957 31.24 75.5623 31.48C75.2423 31.7067 74.8623 31.8667 74.4223 31.96C73.9957 32.0533 73.489 32.1 72.9023 32.1ZM90.2583 31.44C90.2583 31.1333 90.2849 30.7733 90.3383 30.36C90.3916 29.9467 90.4916 29.48 90.6383 28.96C90.7849 28.4267 91.0049 27.8333 91.2983 27.18L93.7583 28.04C93.6116 28.4533 93.4849 28.8333 93.3783 29.18C93.2716 29.5133 93.1916 29.8267 93.1383 30.12C93.0849 30.4 93.0583 30.68 93.0583 30.96C93.0583 31.56 93.2049 32.08 93.4983 32.52C93.8049 32.9733 94.2183 33.32 94.7383 33.56C95.2716 33.8133 95.8849 33.94 96.5783 33.94C97.7116 33.94 98.5783 33.7533 99.1783 33.38C99.7916 33.02 100.205 32.4467 100.418 31.66C100.645 30.86 100.732 29.8267 100.678 28.56L100.278 17.36H103.098L103.398 26.82C103.425 27.4867 103.518 28 103.678 28.36C103.838 28.72 104.085 28.9667 104.418 29.1C104.765 29.2333 105.212 29.3 105.758 29.3C106.265 29.3 106.625 29.4333 106.838 29.7C107.052 29.9533 107.158 30.2733 107.158 30.66C107.158 31.0733 107.018 31.42 106.738 31.7C106.458 31.9667 106.065 32.1 105.558 32.1C105.265 32.1 104.952 32.06 104.618 31.98C104.285 31.9 103.965 31.7733 103.658 31.6C103.352 31.4267 103.085 31.2 102.858 30.92C102.632 30.6267 102.478 30.2667 102.398 29.84L103.478 29.3C103.478 30.6467 103.318 31.7867 102.998 32.72C102.692 33.6533 102.238 34.4067 101.638 34.98C101.052 35.5533 100.325 35.9667 99.4583 36.22C98.6049 36.4867 97.6183 36.62 96.4983 36.62C95.6449 36.62 94.8383 36.5133 94.0783 36.3C93.3316 36.0867 92.6716 35.7667 92.0983 35.34C91.5249 34.9133 91.0716 34.3733 90.7383 33.72C90.4183 33.08 90.2583 32.32 90.2583 31.44ZM115.919 32.36C114.679 32.36 113.645 32.3067 112.819 32.2C112.005 32.0933 111.345 31.94 110.839 31.74C110.332 31.54 109.932 31.3 109.639 31.02C109.345 30.74 109.105 30.4333 108.919 30.1L109.479 29.94C109.145 30.58 108.765 31.0533 108.339 31.36C107.912 31.6667 107.465 31.8667 106.999 31.96C106.532 32.0533 106.052 32.1 105.559 32.1L105.759 29.3C106.172 29.3 106.499 29.2333 106.739 29.1C106.979 28.9667 107.172 28.7467 107.319 28.44C107.479 28.1333 107.625 27.7267 107.759 27.22C107.892 26.7133 108.052 26.0933 108.239 25.36L110.779 25.98C110.685 26.34 110.605 26.6533 110.539 26.92C110.485 27.1867 110.439 27.42 110.399 27.62C110.372 27.8067 110.359 27.96 110.359 28.08C110.359 28.3333 110.419 28.56 110.539 28.76C110.659 28.9467 110.892 29.1 111.239 29.22C111.585 29.3267 112.092 29.4133 112.759 29.48C113.439 29.5333 114.325 29.56 115.419 29.56C116.579 29.56 117.545 29.52 118.319 29.44C119.092 29.3467 119.705 29.22 120.159 29.06C120.625 28.8867 120.959 28.68 121.159 28.44C121.359 28.1867 121.459 27.9 121.459 27.58C121.459 27.3267 121.399 27.0933 121.279 26.88C121.172 26.6533 120.992 26.4667 120.739 26.32C120.485 26.1733 120.159 26.1 119.759 26.1C119.279 26.1 118.792 26.22 118.299 26.46C117.819 26.6867 117.345 26.9933 116.879 27.38C116.412 27.7533 115.965 28.1733 115.539 28.64C115.125 29.1067 114.752 29.5733 114.419 30.04L111.419 29.7C111.939 28.86 112.525 28.0533 113.179 27.28C113.832 26.5067 114.532 25.8267 115.279 25.24C116.025 24.64 116.799 24.1667 117.599 23.82C118.399 23.4733 119.212 23.3 120.039 23.3C120.932 23.3 121.692 23.4733 122.319 23.82C122.945 24.1667 123.425 24.6467 123.759 25.26C124.092 25.8733 124.259 26.58 124.259 27.38C124.259 28.3533 123.979 29.2133 123.419 29.96C122.872 30.7067 121.985 31.2933 120.759 31.72C119.545 32.1467 117.932 32.36 115.919 32.36ZM126.631 32L126.211 17.36H129.011L129.431 32H126.631ZM131.64 36.6L131.06 33.8C132.007 33.68 132.833 33.5333 133.54 33.36C134.247 33.2 134.84 32.9733 135.32 32.68C135.8 32.3867 136.16 31.9867 136.4 31.48C136.64 30.96 136.76 30.2933 136.76 29.48C136.76 28.6933 136.64 28.0667 136.4 27.6C136.16 27.1333 135.84 26.9 135.44 26.9C135.16 26.9 134.927 27 134.74 27.2C134.553 27.3867 134.413 27.6133 134.32 27.88C134.24 28.1333 134.2 28.36 134.2 28.56C134.2 28.68 134.233 28.8067 134.3 28.94C134.367 29.0733 134.513 29.1867 134.74 29.28C134.967 29.3733 135.32 29.4267 135.8 29.44C136.293 29.4533 136.96 29.4067 137.8 29.3H141.16C141.667 29.3 142.027 29.4333 142.24 29.7C142.467 29.9533 142.58 30.2733 142.58 30.66C142.58 31.0733 142.44 31.42 142.16 31.7C141.88 31.9667 141.48 32.1 140.96 32.1H135.46C134.62 32.1 133.9 32 133.3 31.8C132.7 31.6 132.24 31.28 131.92 30.84C131.6 30.3867 131.44 29.7867 131.44 29.04C131.44 28.44 131.54 27.84 131.74 27.24C131.953 26.64 132.247 26.0933 132.62 25.6C132.993 25.0933 133.427 24.6933 133.92 24.4C134.427 24.0933 134.973 23.94 135.56 23.94C136.36 23.94 137.06 24.1867 137.66 24.68C138.26 25.1733 138.727 25.8267 139.06 26.64C139.407 27.4533 139.58 28.34 139.58 29.3C139.58 30.8067 139.26 32.0867 138.62 33.14C137.98 34.1933 137.067 35.0067 135.88 35.58C134.693 36.1667 133.28 36.5067 131.64 36.6ZM140.988 32.1L141.188 29.3C141.988 29.3 142.602 29.26 143.028 29.18C143.455 29.1 143.748 28.9533 143.908 28.74C144.082 28.5133 144.168 28.1933 144.168 27.78C144.168 27.4067 144.115 26.96 144.008 26.44C143.915 25.92 143.788 25.38 143.628 24.82C143.482 24.26 143.322 23.7467 143.148 23.28L145.908 22.52C146.082 22.9733 146.248 23.5 146.408 24.1C146.568 24.7 146.702 25.32 146.808 25.96C146.915 26.5867 146.968 27.1933 146.968 27.78C146.968 28.6867 146.822 29.4267 146.528 30C146.235 30.56 145.822 30.9933 145.288 31.3C144.768 31.6067 144.142 31.82 143.408 31.94C142.675 32.0467 141.868 32.1 140.988 32.1ZM146.408 20.9C146.022 20.9 145.688 20.7667 145.408 20.5C145.142 20.22 145.008 19.8933 145.008 19.52C145.008 19.1333 145.142 18.8 145.408 18.52C145.688 18.24 146.022 18.1 146.408 18.1C146.782 18.1 147.102 18.24 147.368 18.52C147.635 18.8 147.768 19.1333 147.768 19.52C147.768 19.8933 147.635 20.22 147.368 20.5C147.102 20.7667 146.782 20.9 146.408 20.9ZM142.948 20.88C142.562 20.88 142.228 20.7467 141.948 20.48C141.682 20.2 141.548 19.8733 141.548 19.5C141.548 19.1133 141.682 18.78 141.948 18.5C142.228 18.22 142.562 18.08 142.948 18.08C143.322 18.08 143.642 18.22 143.908 18.5C144.175 18.78 144.308 19.1133 144.308 19.5C144.308 19.8733 144.175 20.2 143.908 20.48C143.642 20.7467 143.322 20.88 142.948 20.88Z" fill="white"/>
<path fill-rule="evenodd" clip-rule="evenodd" d="M205.15 10.6063C201.494 6.95 196.619 5 191.5 5C180.775 5 172 13.775 172 24.5C172 27.9125 172.975 31.325 174.681 34.25L172 44L182.238 41.3187C185.163 42.7812 188.331 43.7562 191.5 43.7562C202.225 43.7562 211 34.9812 211 24.2562C211 19.1375 208.806 14.2625 205.15 10.6063ZM191.5 40.5875C188.575 40.5875 185.65 39.8563 183.213 38.3938L182.725 38.15L176.631 39.8562L178.338 34.0062L177.85 33.275C176.144 30.5938 175.412 27.6688 175.412 24.7438C175.412 15.9688 182.725 8.65625 191.5 8.65625C195.887 8.65625 199.788 10.3625 202.956 13.2875C206.125 16.4562 207.588 20.3563 207.588 24.7438C207.588 33.275 200.519 40.5875 191.5 40.5875ZM200.275 28.4C199.788 28.1563 197.35 26.9375 196.863 26.9375C196.375 26.6937 196.131 26.6938 195.887 27.1813C195.644 27.6688 194.669 28.6437 194.425 29.1312C194.181 29.375 193.937 29.375 193.45 29.375C192.962 29.1312 191.5 28.6437 189.55 26.9375C188.088 25.7188 187.113 24.0125 186.869 23.525C186.625 23.0375 186.869 22.7937 187.113 22.55C187.356 22.3062 187.6 22.0625 187.844 21.8187C188.088 21.575 188.088 21.3313 188.331 21.0875C188.575 20.8438 188.331 20.6 188.331 20.3563C188.331 20.1125 187.356 17.675 186.869 16.7C186.625 15.9688 186.138 15.9688 185.894 15.9688C185.65 15.9688 185.406 15.9688 184.919 15.9688C184.675 15.9688 184.187 15.9687 183.7 16.4562C183.212 16.9437 181.994 18.1625 181.994 20.6C181.994 23.0375 183.7 25.2312 183.944 25.7188C184.187 25.9625 187.356 31.0812 192.231 33.0312C196.375 34.7375 197.106 34.25 198.081 34.25C199.056 34.25 201.006 33.0313 201.25 32.0563C201.738 30.8375 201.738 29.8625 201.494 29.8625C201.25 28.6438 200.763 28.6438 200.275 28.4Z" fill="white"/>
<defs>
<filter id="filter0_d_1_3535" x="0" y="0" width="242" height="58" filterUnits="userSpaceOnUse" color-interpolation-filters="sRGB">
<feFlood flood-opacity="0" result="BackgroundImageFix"/>
<feColorMatrix in="SourceAlpha" type="matrix" values="0 0 0 0 0 0 0 0 0 0 0 0 0 0 0 0 0 0 127 0" result="hardAlpha"/>
<feOffset dy="4"/>
<feGaussianBlur stdDeviation="2"/>
<feComposite in2="hardAlpha" operator="out"/>
<feColorMatrix type="matrix" values="0 0 0 0 0 0 0 0 0 0 0 0 0 0 0 0 0 0 0.25 0"/>
<feBlend mode="normal" in2="BackgroundImageFix" result="effect1_dropShadow_1_3535"/>
<feBlend mode="normal" in="SourceGraphic" in2="effect1_dropShadow_1_3535" result="shape"/>
</filter>
</defs>
</svg>
