<?xml version="1.0" encoding="utf-8"?>
<!-- Generator: Adobe Illustrator 23.1.0, SVG Export Plug-In . SVG Version: 6.00 Build 0)  -->
<svg version="1.1" id="Layer_1" xmlns="http://www.w3.org/2000/svg" xmlns:xlink="http://www.w3.org/1999/xlink" x="0px" y="0px"
	 viewBox="0 0 873 434.8" style="enable-background:new 0 0 873 434.8;" xml:space="preserve">
<style type="text/css">
	.st0{clip-path:url(#SVGID_2_);}
	.st1{fill:#009DDE;}
	.st2{fill:#17396B;}
	.st3{font-family:'NotoSans-Medium';}
	.st4{font-size:170px;}
	.st5{font-family:'NotoSans-ExtraBold';}
</style>
<title>WaslaLab-Logo</title>
<g>
	<defs>
		<rect id="SVGID_1_" x="-65.5" y="-53.5" width="1000" height="500"/>
	</defs>
	<clipPath id="SVGID_2_">
		<use xlink:href="#SVGID_1_"  style="overflow:visible;"/>
	</clipPath>
	<g class="st0">
		<path class="st1" d="M201.5,0c4.2,0.9,8.6,1.4,12.8,2.5c13,3.5,24.9,10.4,34.4,19.9c39.1,39,78.1,78,117.1,117.1
			c12.7,12.7,20.2,28.2,21.9,46.1c2.2,24.1-4.6,45.4-21.9,62.8c-39,39.1-78.1,78.2-117.3,117.2c-12.9,12.8-28.5,20-46.6,22
			c-0.8,0.1-1.6-0.1-2.3,0.5h-10.6c-0.9-0.4-1.9-0.5-2.8-0.5c-18.1-2-33.7-9.2-46.5-22c-39.2-39-78.3-78.1-117.3-117.3
			c-9.7-9.6-16.5-21.7-19.8-34.9c-1-3.7-1.6-7.5-2.4-11.3v-16c0.2-0.8,0.4-1.6,0.5-2.3c2-15.3,8.6-29.7,18.9-41.1
			c3.4-3.8,7.2-7.4,10.8-11.1c36.1-36.1,72.2-72.2,108.4-108.4c9.6-9.8,21.6-16.8,34.8-20.5c4.3-1.2,8.7-1.7,13-2.6H201.5z
			 M217.7,225.7c0.4,0.9,0.6,2,0.5,3c0,18.1,0,36.2,0,54.3c0,1.9,0.4,2.6,2.5,2.6c16.9-0.1,33.8,0,50.6-0.1
			c7.6,0,12.5-4.9,12.5-12.4c0-54.3,0-108.5,0-162.8c0-2.1-0.6-2.5-2.6-2.5c-53.8,0.1-107.5,0.1-161.3,0.1c-9.4,0-13.9,4.5-13.9,14
			c0,16.1,0.1,32.3-0.1,48.4c0,2.4,0.5,3.1,3,3.1c22-0.1,43.9-0.1,65.9,0c0.9-0.3,1.9,0.1,2.5,0.8c-0.8,0.4-1.5,0.9-2.2,1.5
			c-27.6,27.6-55.2,55.1-82.8,82.7c-1.2,1.2-1.4,1.9-0.1,3.2c14.4,14.3,28.8,28.7,43.2,43.1c1.4,1.4,2.1,1.3,3.4,0
			c19.8-19.8,39.6-39.7,59.4-59.4C204.7,238.9,211.1,232.4,217.7,225.7"/>
	</g>
</g>
<text transform="matrix(1 0 0 1 392.58 203.44)" class="st2 st3 st4">Wasla</text>
<text transform="matrix(1 0 0 1 400.57 367.66)" class="st2 st5 st4">Lab</text>
</svg>
